<svg xmlns="http://www.w3.org/2000/svg" xmlns:xlink="http://www.w3.org/1999/xlink" width="338" zoomAndPan="magnify" viewBox="0 0 253.5 66.75" height="89" preserveAspectRatio="xMidYMid meet" version="1.0"><defs><g/><clipPath id="f89c3bd4d0"><path d="M 181 26 L 238 26 L 238 37 L 181 37 Z M 181 26 " clip-rule="nonzero"/></clipPath><clipPath id="c71e61d165"><path d="M 169.3125 17.96875 L 241.457031 0.0546875 L 252.480469 44.453125 L 180.335938 62.363281 Z M 169.3125 17.96875 " clip-rule="nonzero"/></clipPath><clipPath id="35b00d00ad"><path d="M 241.679688 0 L 169.539062 17.914062 L 180.5625 62.308594 L 252.703125 44.394531 Z M 241.679688 0 " clip-rule="nonzero"/></clipPath><clipPath id="f1071d83ed"><path d="M 241.679688 0 L 169.539062 17.914062 L 180.5625 62.308594 L 252.703125 44.394531 Z M 241.679688 0 " clip-rule="nonzero"/></clipPath><clipPath id="42f9c9f393"><path d="M 14 29 L 71 29 L 71 40 L 14 40 Z M 14 29 " clip-rule="nonzero"/></clipPath><clipPath id="5ef33d9124"><path d="M 0.226562 21.535156 L 72.367188 3.621094 L 83.390625 48.019531 L 11.25 65.929688 Z M 0.226562 21.535156 " clip-rule="nonzero"/></clipPath><clipPath id="6600b14628"><path d="M 11.234375 65.871094 L 83.375 47.957031 L 72.351562 3.5625 L 0.210938 21.476562 Z M 11.234375 65.871094 " clip-rule="nonzero"/></clipPath><clipPath id="5b34c2ad82"><path d="M 11.234375 65.871094 L 83.375 47.957031 L 72.351562 3.5625 L 0.210938 21.476562 Z M 11.234375 65.871094 " clip-rule="nonzero"/></clipPath></defs><g clip-path="url(#f89c3bd4d0)"><g clip-path="url(#c71e61d165)"><g clip-path="url(#35b00d00ad)"><g clip-path="url(#f1071d83ed)"><path fill="#000000" d="M 182.21875 33.097656 C 182.0625 33.101562 181.925781 33.246094 181.933594 33.417969 C 181.941406 33.574219 182.085938 33.714844 182.257812 33.703125 C 184.609375 33.578125 188.722656 34.015625 193.710938 34.550781 C 209.492188 36.238281 233.792969 38.855469 237.933594 27.132812 C 237.941406 27.117188 237.941406 27.101562 237.9375 27.085938 C 237.988281 26.976562 237.992188 26.867188 237.960938 26.746094 C 237.886719 26.449219 237.589844 26.269531 237.292969 26.34375 C 236.996094 26.417969 236.820312 26.714844 236.894531 27.011719 C 236.929688 27.160156 237.039062 27.292969 237.152344 27.359375 C 232.695312 38.113281 209.121094 35.570312 193.714844 33.929688 C 188.707031 33.386719 184.546875 32.945312 182.179688 33.074219 L 182.195312 33.070312 Z M 182.21875 33.097656 " fill-opacity="1" fill-rule="nonzero"/></g></g></g></g><g clip-path="url(#42f9c9f393)"><g clip-path="url(#5ef33d9124)"><g clip-path="url(#6600b14628)"><g clip-path="url(#5b34c2ad82)"><path fill="#000000" d="M 70.695312 32.773438 C 70.851562 32.769531 70.988281 32.621094 70.980469 32.453125 C 70.972656 32.292969 70.828125 32.15625 70.65625 32.167969 C 68.304688 32.292969 64.191406 31.855469 59.203125 31.320312 C 43.421875 29.628906 19.121094 27.015625 14.980469 38.734375 C 14.972656 38.753906 14.976562 38.769531 14.976562 38.785156 C 14.925781 38.890625 14.921875 39.003906 14.953125 39.125 C 15.027344 39.421875 15.324219 39.601562 15.621094 39.527344 C 15.917969 39.453125 16.09375 39.15625 16.023438 38.859375 C 15.984375 38.707031 15.875 38.578125 15.761719 38.511719 C 20.21875 27.757812 43.792969 30.300781 59.199219 31.9375 C 64.207031 32.484375 68.367188 32.925781 70.734375 32.796875 L 70.71875 32.800781 Z M 70.695312 32.773438 " fill-opacity="1" fill-rule="nonzero"/></g></g></g></g><path stroke-linecap="butt" transform="matrix(0, 0.571798, -0.571798, 0, 48.872747, 15.632717)" fill="none" stroke-linejoin="miter" d="M 0.0001668 1.000294 L 73.158941 1.000294 " stroke="#000000" stroke-width="2" stroke-opacity="1" stroke-miterlimit="4"/><path stroke-linecap="butt" transform="matrix(0.571798, 0, 0, 0.571798, 47.953582, 15.631497)" fill="none" stroke-linejoin="miter" d="M -0.000799363 0.999703 L 272.187552 0.999703 " stroke="#000000" stroke-width="2" stroke-opacity="1" stroke-miterlimit="4"/><path stroke-linecap="butt" transform="matrix(0.571798, 0, 0, 0.571798, 47.953582, 56.320928)" fill="none" stroke-linejoin="miter" d="M -0.000799363 1.003158 L 70.596154 1.003158 " stroke="#000000" stroke-width="2" stroke-opacity="1" stroke-miterlimit="4"/><path stroke-linecap="butt" transform="matrix(0, 0.571798, -0.571798, 0, 203.588842, 16.204516)" fill="none" stroke-linejoin="miter" d="M -0.00243242 1.002481 L 73.163174 1.002481 " stroke="#000000" stroke-width="2" stroke-opacity="1" stroke-miterlimit="4"/><path stroke-linecap="butt" transform="matrix(0.571798, 0, 0, 0.571798, 162.651775, 56.892732)" fill="none" stroke-linejoin="miter" d="M 0.000994269 1.000549 L 70.597948 1.000549 " stroke="#000000" stroke-width="2" stroke-opacity="1" stroke-miterlimit="4"/><g fill="#000000" fill-opacity="1"><g transform="translate(68.785053, 37.374106)"><g><path d="M 19.671875 -17.734375 C 19.773438 -17.734375 19.859375 -17.695312 19.921875 -17.625 C 19.992188 -17.5625 20.03125 -17.476562 20.03125 -17.375 C 20.03125 -17.28125 19.992188 -17.195312 19.921875 -17.125 C 19.859375 -17.0625 19.773438 -17.03125 19.671875 -17.03125 C 18.734375 -17.019531 17.65625 -16.941406 16.4375 -16.796875 C 15.226562 -16.660156 13.976562 -16.476562 12.6875 -16.25 C 11.394531 -16.019531 10.148438 -15.753906 8.953125 -15.453125 C 8.765625 -14.679688 8.550781 -13.832031 8.3125 -12.90625 C 8.070312 -11.976562 7.816406 -11.015625 7.546875 -10.015625 C 7.367188 -9.273438 7.175781 -8.507812 6.96875 -7.71875 C 6.757812 -6.9375 6.554688 -6.144531 6.359375 -5.34375 C 7.203125 -5.5625 8.050781 -5.769531 8.90625 -5.96875 C 9.769531 -6.175781 10.578125 -6.359375 11.328125 -6.515625 C 12.078125 -6.671875 12.722656 -6.785156 13.265625 -6.859375 C 13.816406 -6.941406 14.203125 -6.976562 14.421875 -6.96875 C 14.523438 -6.957031 14.601562 -6.914062 14.65625 -6.84375 C 14.71875 -6.78125 14.75 -6.695312 14.75 -6.59375 C 14.738281 -6.5 14.695312 -6.414062 14.625 -6.34375 C 14.5625 -6.28125 14.484375 -6.25 14.390625 -6.25 C 14.140625 -6.269531 13.671875 -6.222656 12.984375 -6.109375 C 12.304688 -5.992188 11.488281 -5.832031 10.53125 -5.625 C 9.570312 -5.425781 8.5625 -5.191406 7.5 -4.921875 C 7.03125 -4.796875 6.582031 -4.679688 6.15625 -4.578125 C 5.832031 -3.273438 5.535156 -2.015625 5.265625 -0.796875 C 5.003906 0.421875 4.785156 1.546875 4.609375 2.578125 C 4.441406 3.617188 4.351562 4.492188 4.34375 5.203125 C 4.34375 5.492188 4.367188 5.789062 4.421875 6.09375 C 4.472656 6.394531 4.597656 6.585938 4.796875 6.671875 C 5.023438 6.765625 5.332031 6.722656 5.71875 6.546875 C 6.101562 6.378906 6.535156 6.117188 7.015625 5.765625 C 7.492188 5.410156 7.984375 5.007812 8.484375 4.5625 C 8.992188 4.125 9.484375 3.675781 9.953125 3.21875 C 10.421875 2.769531 10.835938 2.367188 11.203125 2.015625 C 11.304688 1.921875 11.40625 1.828125 11.5 1.734375 C 11.601562 1.640625 11.695312 1.546875 11.78125 1.453125 L 12.09375 1.15625 C 12.269531 0.988281 12.441406 0.820312 12.609375 0.65625 C 12.785156 0.488281 12.941406 0.34375 13.078125 0.21875 C 13.265625 0.0507812 13.4375 -0.0820312 13.59375 -0.1875 C 13.757812 -0.289062 13.90625 -0.273438 14.03125 -0.140625 C 14.195312 -0.00390625 14.21875 0.171875 14.09375 0.390625 C 13.96875 0.609375 13.726562 0.957031 13.375 1.4375 C 13.3125 1.519531 13.226562 1.566406 13.125 1.578125 C 13.03125 1.585938 12.945312 1.5625 12.875 1.5 C 12.851562 1.488281 12.832031 1.472656 12.8125 1.453125 C 12.769531 1.484375 12.726562 1.515625 12.6875 1.546875 C 12.65625 1.585938 12.625 1.628906 12.59375 1.671875 L 12.28125 1.96875 C 12.1875 2.050781 12.09375 2.140625 12 2.234375 C 11.90625 2.335938 11.804688 2.429688 11.703125 2.515625 C 10.785156 3.410156 9.914062 4.226562 9.09375 4.96875 C 8.269531 5.707031 7.507812 6.300781 6.8125 6.75 C 6.125 7.195312 5.53125 7.421875 5.03125 7.421875 C 4.832031 7.421875 4.660156 7.382812 4.515625 7.3125 C 3.898438 7.050781 3.609375 6.347656 3.640625 5.203125 C 3.648438 4.472656 3.734375 3.609375 3.890625 2.609375 C 4.054688 1.617188 4.265625 0.53125 4.515625 -0.65625 C 4.773438 -1.84375 5.054688 -3.078125 5.359375 -4.359375 C 4.097656 -4.003906 3.117188 -3.691406 2.421875 -3.421875 C 1.722656 -3.160156 1.304688 -2.96875 1.171875 -2.84375 C 1.109375 -2.78125 1.03125 -2.75 0.9375 -2.75 C 0.84375 -2.75 0.757812 -2.785156 0.6875 -2.859375 C 0.625 -2.921875 0.59375 -3 0.59375 -3.09375 C 0.59375 -3.195312 0.628906 -3.285156 0.703125 -3.359375 C 0.847656 -3.503906 1.15625 -3.675781 1.625 -3.875 C 2.09375 -4.070312 2.671875 -4.273438 3.359375 -4.484375 C 4.046875 -4.703125 4.78125 -4.921875 5.5625 -5.140625 C 5.769531 -5.984375 5.988281 -6.832031 6.21875 -7.6875 C 6.445312 -8.539062 6.664062 -9.378906 6.875 -10.203125 C 7.113281 -11.117188 7.34375 -12.003906 7.5625 -12.859375 C 7.789062 -13.722656 7.992188 -14.519531 8.171875 -15.25 C 7.097656 -14.957031 6.113281 -14.648438 5.21875 -14.328125 C 4.332031 -14.003906 3.609375 -13.671875 3.046875 -13.328125 C 2.484375 -12.984375 2.15625 -12.640625 2.0625 -12.296875 C 2.03125 -12.242188 2.023438 -12.128906 2.046875 -11.953125 C 2.078125 -11.785156 2.285156 -11.570312 2.671875 -11.3125 C 2.742188 -11.257812 2.785156 -11.1875 2.796875 -11.09375 C 2.816406 -11 2.800781 -10.910156 2.75 -10.828125 C 2.675781 -10.722656 2.582031 -10.671875 2.46875 -10.671875 C 2.394531 -10.671875 2.328125 -10.691406 2.265625 -10.734375 C 1.773438 -11.066406 1.488281 -11.390625 1.40625 -11.703125 C 1.320312 -12.015625 1.3125 -12.28125 1.375 -12.5 C 1.5 -12.882812 1.785156 -13.25 2.234375 -13.59375 C 2.679688 -13.9375 3.238281 -14.253906 3.90625 -14.546875 C 4.570312 -14.847656 5.289062 -15.125 6.0625 -15.375 C 6.832031 -15.625 7.597656 -15.847656 8.359375 -16.046875 C 8.429688 -16.347656 8.492188 -16.609375 8.546875 -16.828125 C 8.554688 -16.929688 8.601562 -17.003906 8.6875 -17.046875 C 8.769531 -17.097656 8.859375 -17.117188 8.953125 -17.109375 C 9.046875 -17.078125 9.117188 -17.019531 9.171875 -16.9375 C 9.234375 -16.863281 9.25 -16.78125 9.21875 -16.6875 C 9.195312 -16.5625 9.164062 -16.40625 9.125 -16.21875 C 10.320312 -16.519531 11.554688 -16.78125 12.828125 -17 C 14.109375 -17.21875 15.335938 -17.390625 16.515625 -17.515625 C 17.703125 -17.648438 18.753906 -17.722656 19.671875 -17.734375 Z M 19.671875 -17.734375 "/></g></g></g><g fill="#000000" fill-opacity="1"><g transform="translate(84.361973, 37.374106)"><g><path d="M 10.359375 -4.109375 C 10.429688 -4.054688 10.46875 -3.976562 10.46875 -3.875 C 10.476562 -3.78125 10.457031 -3.695312 10.40625 -3.625 C 8.84375 -1.789062 7.609375 -1.046875 6.703125 -1.390625 C 6.054688 -1.640625 5.707031 -2.421875 5.65625 -3.734375 C 5.519531 -3.484375 5.375 -3.203125 5.21875 -2.890625 C 5.070312 -2.578125 4.945312 -2.320312 4.84375 -2.125 C 4.769531 -1.945312 4.695312 -1.785156 4.625 -1.640625 C 4.550781 -1.492188 4.484375 -1.367188 4.421875 -1.265625 C 4.390625 -1.191406 4.328125 -1.082031 4.234375 -0.9375 C 4.140625 -0.800781 4.019531 -0.679688 3.875 -0.578125 C 3.738281 -0.472656 3.582031 -0.445312 3.40625 -0.5 C 3.175781 -0.5625 3.003906 -0.722656 2.890625 -0.984375 C 2.785156 -1.242188 2.722656 -1.53125 2.703125 -1.84375 C 2.679688 -2.15625 2.671875 -2.410156 2.671875 -2.609375 C 2.671875 -2.765625 2.671875 -2.914062 2.671875 -3.0625 C 2.671875 -3.21875 2.675781 -3.351562 2.6875 -3.46875 C 2.257812 -2.851562 1.847656 -2.21875 1.453125 -1.5625 C 1.054688 -0.914062 0.640625 -0.164062 0.203125 0.6875 C 0.0546875 0.96875 -0.101562 1.109375 -0.28125 1.109375 C -0.34375 1.109375 -0.394531 1.085938 -0.4375 1.046875 C -0.5 1.023438 -0.554688 0.984375 -0.609375 0.921875 C -0.660156 0.867188 -0.6875 0.757812 -0.6875 0.59375 C -0.695312 0.425781 -0.671875 0.171875 -0.609375 -0.171875 C -0.554688 -0.515625 -0.453125 -0.988281 -0.296875 -1.59375 C -0.109375 -2.34375 0.109375 -3.082031 0.359375 -3.8125 C 0.609375 -4.550781 0.863281 -5.21875 1.125 -5.8125 C 1.15625 -5.90625 1.21875 -5.96875 1.3125 -6 C 1.40625 -6.039062 1.492188 -6.035156 1.578125 -5.984375 C 1.679688 -5.953125 1.742188 -5.890625 1.765625 -5.796875 C 1.796875 -5.703125 1.796875 -5.613281 1.765625 -5.53125 C 1.429688 -4.757812 1.132812 -3.953125 0.875 -3.109375 C 0.613281 -2.273438 0.40625 -1.546875 0.25 -0.921875 C 0.632812 -1.585938 1.007812 -2.210938 1.375 -2.796875 C 1.738281 -3.378906 2.125 -3.945312 2.53125 -4.5 C 2.570312 -4.550781 2.632812 -4.617188 2.71875 -4.703125 C 2.8125 -4.785156 2.941406 -4.804688 3.109375 -4.765625 C 3.265625 -4.703125 3.351562 -4.582031 3.375 -4.40625 C 3.394531 -4.238281 3.394531 -3.953125 3.375 -3.546875 C 3.375 -3.410156 3.367188 -3.257812 3.359375 -3.09375 C 3.359375 -2.9375 3.359375 -2.773438 3.359375 -2.609375 C 3.359375 -2.242188 3.382812 -1.941406 3.4375 -1.703125 C 3.488281 -1.472656 3.53125 -1.316406 3.5625 -1.234375 C 3.582031 -1.253906 3.613281 -1.296875 3.65625 -1.359375 C 3.707031 -1.421875 3.765625 -1.5 3.828125 -1.59375 C 3.867188 -1.6875 3.921875 -1.804688 3.984375 -1.953125 C 4.054688 -2.097656 4.132812 -2.253906 4.21875 -2.421875 C 4.539062 -3.109375 4.800781 -3.632812 5 -4 C 5.207031 -4.375 5.382812 -4.628906 5.53125 -4.765625 C 5.675781 -4.898438 5.828125 -4.945312 5.984375 -4.90625 C 6.179688 -4.851562 6.296875 -4.734375 6.328125 -4.546875 C 6.359375 -4.359375 6.375 -4.207031 6.375 -4.09375 C 6.363281 -3.519531 6.410156 -3.054688 6.515625 -2.703125 C 6.617188 -2.347656 6.769531 -2.132812 6.96875 -2.0625 C 7.1875 -1.96875 7.535156 -2.0625 8.015625 -2.34375 C 8.503906 -2.632812 9.125 -3.210938 9.875 -4.078125 C 9.925781 -4.148438 10 -4.1875 10.09375 -4.1875 C 10.195312 -4.195312 10.285156 -4.171875 10.359375 -4.109375 Z M 10.359375 -4.109375 "/></g></g></g><g fill="#000000" fill-opacity="1"><g transform="translate(93.932224, 37.374106)"><g><path d="M 10.359375 -4.109375 C 10.429688 -4.054688 10.46875 -3.976562 10.46875 -3.875 C 10.476562 -3.78125 10.457031 -3.695312 10.40625 -3.625 C 8.84375 -1.789062 7.609375 -1.046875 6.703125 -1.390625 C 6.054688 -1.640625 5.707031 -2.421875 5.65625 -3.734375 C 5.519531 -3.484375 5.375 -3.203125 5.21875 -2.890625 C 5.070312 -2.578125 4.945312 -2.320312 4.84375 -2.125 C 4.769531 -1.945312 4.695312 -1.785156 4.625 -1.640625 C 4.550781 -1.492188 4.484375 -1.367188 4.421875 -1.265625 C 4.390625 -1.191406 4.328125 -1.082031 4.234375 -0.9375 C 4.140625 -0.800781 4.019531 -0.679688 3.875 -0.578125 C 3.738281 -0.472656 3.582031 -0.445312 3.40625 -0.5 C 3.175781 -0.5625 3.003906 -0.722656 2.890625 -0.984375 C 2.785156 -1.242188 2.722656 -1.53125 2.703125 -1.84375 C 2.679688 -2.15625 2.671875 -2.410156 2.671875 -2.609375 C 2.671875 -2.765625 2.671875 -2.914062 2.671875 -3.0625 C 2.671875 -3.21875 2.675781 -3.351562 2.6875 -3.46875 C 2.257812 -2.851562 1.847656 -2.21875 1.453125 -1.5625 C 1.054688 -0.914062 0.640625 -0.164062 0.203125 0.6875 C 0.0546875 0.96875 -0.101562 1.109375 -0.28125 1.109375 C -0.34375 1.109375 -0.394531 1.085938 -0.4375 1.046875 C -0.5 1.023438 -0.554688 0.984375 -0.609375 0.921875 C -0.660156 0.867188 -0.6875 0.757812 -0.6875 0.59375 C -0.695312 0.425781 -0.671875 0.171875 -0.609375 -0.171875 C -0.554688 -0.515625 -0.453125 -0.988281 -0.296875 -1.59375 C -0.109375 -2.34375 0.109375 -3.082031 0.359375 -3.8125 C 0.609375 -4.550781 0.863281 -5.21875 1.125 -5.8125 C 1.15625 -5.90625 1.21875 -5.96875 1.3125 -6 C 1.40625 -6.039062 1.492188 -6.035156 1.578125 -5.984375 C 1.679688 -5.953125 1.742188 -5.890625 1.765625 -5.796875 C 1.796875 -5.703125 1.796875 -5.613281 1.765625 -5.53125 C 1.429688 -4.757812 1.132812 -3.953125 0.875 -3.109375 C 0.613281 -2.273438 0.40625 -1.546875 0.25 -0.921875 C 0.632812 -1.585938 1.007812 -2.210938 1.375 -2.796875 C 1.738281 -3.378906 2.125 -3.945312 2.53125 -4.5 C 2.570312 -4.550781 2.632812 -4.617188 2.71875 -4.703125 C 2.8125 -4.785156 2.941406 -4.804688 3.109375 -4.765625 C 3.265625 -4.703125 3.351562 -4.582031 3.375 -4.40625 C 3.394531 -4.238281 3.394531 -3.953125 3.375 -3.546875 C 3.375 -3.410156 3.367188 -3.257812 3.359375 -3.09375 C 3.359375 -2.9375 3.359375 -2.773438 3.359375 -2.609375 C 3.359375 -2.242188 3.382812 -1.941406 3.4375 -1.703125 C 3.488281 -1.472656 3.53125 -1.316406 3.5625 -1.234375 C 3.582031 -1.253906 3.613281 -1.296875 3.65625 -1.359375 C 3.707031 -1.421875 3.765625 -1.5 3.828125 -1.59375 C 3.867188 -1.6875 3.921875 -1.804688 3.984375 -1.953125 C 4.054688 -2.097656 4.132812 -2.253906 4.21875 -2.421875 C 4.539062 -3.109375 4.800781 -3.632812 5 -4 C 5.207031 -4.375 5.382812 -4.628906 5.53125 -4.765625 C 5.675781 -4.898438 5.828125 -4.945312 5.984375 -4.90625 C 6.179688 -4.851562 6.296875 -4.734375 6.328125 -4.546875 C 6.359375 -4.359375 6.375 -4.207031 6.375 -4.09375 C 6.363281 -3.519531 6.410156 -3.054688 6.515625 -2.703125 C 6.617188 -2.347656 6.769531 -2.132812 6.96875 -2.0625 C 7.1875 -1.96875 7.535156 -2.0625 8.015625 -2.34375 C 8.503906 -2.632812 9.125 -3.210938 9.875 -4.078125 C 9.925781 -4.148438 10 -4.1875 10.09375 -4.1875 C 10.195312 -4.195312 10.285156 -4.171875 10.359375 -4.109375 Z M 10.359375 -4.109375 "/></g></g></g><g fill="#000000" fill-opacity="1"><g transform="translate(103.502474, 37.374106)"><g><path d="M 7.703125 -4.078125 C 7.785156 -4.046875 7.84375 -3.984375 7.875 -3.890625 C 7.90625 -3.796875 7.898438 -3.707031 7.859375 -3.625 C 7.628906 -3.144531 7.375 -2.664062 7.09375 -2.1875 C 6.820312 -1.707031 6.535156 -1.269531 6.234375 -0.875 C 5.929688 -0.476562 5.617188 -0.160156 5.296875 0.078125 C 4.984375 0.316406 4.671875 0.4375 4.359375 0.4375 C 4.296875 0.4375 4.226562 0.429688 4.15625 0.421875 C 3.332031 0.265625 2.820312 -0.835938 2.625 -2.890625 C 2.414062 -2.609375 2.171875 -2.289062 1.890625 -1.9375 C 1.617188 -1.59375 1.332031 -1.25 1.03125 -0.90625 C 0.976562 -0.851562 0.894531 -0.773438 0.78125 -0.671875 C 0.675781 -0.566406 0.550781 -0.484375 0.40625 -0.421875 C 0.257812 -0.359375 0.113281 -0.363281 -0.03125 -0.4375 C -0.332031 -0.550781 -0.472656 -0.867188 -0.453125 -1.390625 C -0.453125 -1.703125 -0.394531 -2.082031 -0.28125 -2.53125 C -0.164062 -2.988281 -0.00390625 -3.445312 0.203125 -3.90625 C 0.421875 -4.363281 0.671875 -4.769531 0.953125 -5.125 C 1.242188 -5.476562 1.566406 -5.71875 1.921875 -5.84375 C 2.148438 -5.925781 2.421875 -5.941406 2.734375 -5.890625 C 3.054688 -5.835938 3.390625 -5.609375 3.734375 -5.203125 C 3.796875 -5.128906 3.820312 -5.039062 3.8125 -4.9375 C 3.800781 -4.84375 3.757812 -4.765625 3.6875 -4.703125 C 3.613281 -4.640625 3.53125 -4.609375 3.4375 -4.609375 C 3.34375 -4.617188 3.265625 -4.660156 3.203125 -4.734375 C 2.898438 -5.078125 2.640625 -5.238281 2.421875 -5.21875 C 2.210938 -5.207031 2.035156 -5.144531 1.890625 -5.03125 C 1.617188 -4.832031 1.375 -4.550781 1.15625 -4.1875 C 0.9375 -3.820312 0.753906 -3.4375 0.609375 -3.03125 C 0.460938 -2.625 0.359375 -2.242188 0.296875 -1.890625 C 0.234375 -1.546875 0.210938 -1.296875 0.234375 -1.140625 C 0.273438 -1.160156 0.316406 -1.1875 0.359375 -1.21875 C 0.398438 -1.257812 0.445312 -1.3125 0.5 -1.375 C 0.863281 -1.78125 1.195312 -2.179688 1.5 -2.578125 C 1.8125 -2.972656 2.078125 -3.328125 2.296875 -3.640625 C 2.359375 -3.722656 2.414062 -3.800781 2.46875 -3.875 C 2.519531 -3.957031 2.570312 -4.03125 2.625 -4.09375 C 2.726562 -4.21875 2.859375 -4.253906 3.015625 -4.203125 C 3.171875 -4.171875 3.253906 -4.066406 3.265625 -3.890625 C 3.304688 -3.097656 3.367188 -2.457031 3.453125 -1.96875 C 3.546875 -1.488281 3.648438 -1.128906 3.765625 -0.890625 C 3.878906 -0.648438 3.984375 -0.488281 4.078125 -0.40625 C 4.171875 -0.320312 4.242188 -0.28125 4.296875 -0.28125 C 4.535156 -0.226562 4.910156 -0.460938 5.421875 -0.984375 C 5.929688 -1.515625 6.53125 -2.488281 7.21875 -3.90625 C 7.269531 -4.007812 7.34375 -4.078125 7.4375 -4.109375 C 7.53125 -4.140625 7.617188 -4.128906 7.703125 -4.078125 Z M 7.703125 -4.078125 "/></g></g></g><g fill="#000000" fill-opacity="1"><g transform="translate(110.335745, 37.374106)"><g/></g></g><g fill="#000000" fill-opacity="1"><g transform="translate(115.975033, 37.374106)"><g><path d="M 16.6875 -17.859375 C 16.976562 -17.660156 17.253906 -17.382812 17.515625 -17.03125 C 17.785156 -16.6875 17.984375 -16.25 18.109375 -15.71875 C 18.242188 -15.195312 18.28125 -14.554688 18.21875 -13.796875 C 18.15625 -13.046875 17.941406 -12.164062 17.578125 -11.15625 C 17.035156 -9.625 16.382812 -8.234375 15.625 -6.984375 C 14.863281 -5.734375 14.019531 -4.671875 13.09375 -3.796875 C 12.351562 -3.085938 11.585938 -2.535156 10.796875 -2.140625 C 10.003906 -1.753906 9.253906 -1.5625 8.546875 -1.5625 C 8.472656 -1.5625 8.398438 -1.566406 8.328125 -1.578125 C 7.210938 -1.648438 6.421875 -2.175781 5.953125 -3.15625 C 5.660156 -1.894531 5.367188 -0.65625 5.078125 0.5625 C 4.796875 1.78125 4.53125 2.929688 4.28125 4.015625 C 4.03125 5.109375 3.820312 6.085938 3.65625 6.953125 C 3.488281 7.816406 3.367188 8.519531 3.296875 9.0625 C 3.316406 9.007812 3.335938 8.953125 3.359375 8.890625 C 3.398438 8.804688 3.460938 8.742188 3.546875 8.703125 C 3.640625 8.671875 3.734375 8.671875 3.828125 8.703125 C 3.910156 8.753906 3.96875 8.828125 4 8.921875 C 4.039062 9.015625 4.039062 9.101562 4 9.1875 C 3.78125 9.664062 3.597656 10.015625 3.453125 10.234375 C 3.304688 10.460938 3.148438 10.578125 2.984375 10.578125 C 2.929688 10.578125 2.878906 10.566406 2.828125 10.546875 C 2.703125 10.503906 2.613281 10.414062 2.5625 10.28125 C 2.507812 10.15625 2.492188 9.925781 2.515625 9.59375 C 2.535156 9.269531 2.601562 8.800781 2.71875 8.1875 C 2.90625 7.070312 3.226562 5.476562 3.6875 3.40625 C 3.988281 2.113281 4.3125 0.734375 4.65625 -0.734375 C 5.007812 -2.203125 5.367188 -3.695312 5.734375 -5.21875 C 6.097656 -6.75 6.457031 -8.238281 6.8125 -9.6875 C 7.15625 -11.082031 7.472656 -12.390625 7.765625 -13.609375 C 8.066406 -14.828125 8.328125 -15.894531 8.546875 -16.8125 C 7.742188 -16.46875 6.96875 -16.066406 6.21875 -15.609375 C 5.476562 -15.160156 4.8125 -14.679688 4.21875 -14.171875 C 3.414062 -13.453125 2.820312 -12.785156 2.4375 -12.171875 C 2.050781 -11.554688 1.804688 -10.976562 1.703125 -10.4375 C 1.609375 -9.90625 1.597656 -9.4375 1.671875 -9.03125 C 1.753906 -8.625 1.863281 -8.285156 2 -8.015625 C 2.050781 -7.929688 2.0625 -7.84375 2.03125 -7.75 C 2 -7.65625 1.941406 -7.582031 1.859375 -7.53125 C 1.773438 -7.5 1.6875 -7.5 1.59375 -7.53125 C 1.5 -7.5625 1.425781 -7.617188 1.375 -7.703125 C 0.832031 -8.773438 0.765625 -9.921875 1.171875 -11.140625 C 1.585938 -12.367188 2.445312 -13.554688 3.75 -14.703125 C 4.445312 -15.296875 5.21875 -15.847656 6.0625 -16.359375 C 6.914062 -16.867188 7.8125 -17.300781 8.75 -17.65625 C 8.789062 -17.90625 8.835938 -18.125 8.890625 -18.3125 C 8.898438 -18.40625 8.945312 -18.476562 9.03125 -18.53125 C 9.125 -18.582031 9.21875 -18.597656 9.3125 -18.578125 C 9.394531 -18.566406 9.460938 -18.515625 9.515625 -18.421875 C 9.578125 -18.335938 9.597656 -18.25 9.578125 -18.15625 C 9.578125 -18.113281 9.566406 -18.070312 9.546875 -18.03125 C 9.535156 -18 9.53125 -17.972656 9.53125 -17.953125 C 9.84375 -18.046875 10.148438 -18.140625 10.453125 -18.234375 C 11.765625 -18.585938 12.957031 -18.734375 14.03125 -18.671875 C 15.101562 -18.609375 15.988281 -18.335938 16.6875 -17.859375 Z M 16.90625 -11.390625 C 17.09375 -11.890625 17.242188 -12.414062 17.359375 -12.96875 C 17.484375 -13.53125 17.546875 -14.082031 17.546875 -14.625 C 17.546875 -15.164062 17.445312 -15.664062 17.25 -16.125 C 17.050781 -16.582031 16.726562 -16.972656 16.28125 -17.296875 C 15.675781 -17.691406 14.878906 -17.910156 13.890625 -17.953125 C 12.910156 -18.003906 11.828125 -17.867188 10.640625 -17.546875 C 10.210938 -17.421875 9.773438 -17.28125 9.328125 -17.125 C 9.117188 -16.175781 8.851562 -15.050781 8.53125 -13.75 C 8.21875 -12.445312 7.878906 -11.035156 7.515625 -9.515625 C 7.304688 -8.710938 7.09375 -7.867188 6.875 -6.984375 C 6.664062 -6.109375 6.453125 -5.210938 6.234375 -4.296875 C 6.316406 -4.242188 6.367188 -4.171875 6.390625 -4.078125 C 6.640625 -2.953125 7.296875 -2.351562 8.359375 -2.28125 C 8.984375 -2.238281 9.671875 -2.394531 10.421875 -2.75 C 11.171875 -3.113281 11.90625 -3.632812 12.625 -4.3125 C 13.03125 -4.695312 13.476562 -5.203125 13.96875 -5.828125 C 14.46875 -6.460938 14.972656 -7.234375 15.484375 -8.140625 C 15.992188 -9.054688 16.46875 -10.140625 16.90625 -11.390625 Z M 16.90625 -11.390625 "/></g></g></g><g fill="#000000" fill-opacity="1"><g transform="translate(132.176493, 37.374106)"><g><path d="M 6.203125 -4.09375 C 6.296875 -4.050781 6.347656 -3.976562 6.359375 -3.875 C 6.367188 -3.78125 6.347656 -3.695312 6.296875 -3.625 C 5.578125 -2.613281 4.914062 -1.78125 4.3125 -1.125 C 3.71875 -0.46875 3.117188 0.0703125 2.515625 0.5 C 2.066406 0.8125 1.617188 0.96875 1.171875 0.96875 C 0.828125 0.96875 0.53125 0.878906 0.28125 0.703125 C 0.101562 0.578125 -0.0664062 0.359375 -0.234375 0.046875 C -0.398438 -0.265625 -0.488281 -0.71875 -0.5 -1.3125 C -0.507812 -1.90625 -0.363281 -2.6875 -0.0625 -3.65625 C -0.0625 -3.65625 -0.0625 -3.660156 -0.0625 -3.671875 C 0.3125 -4.847656 0.742188 -5.742188 1.234375 -6.359375 C 1.734375 -6.984375 2.160156 -7.300781 2.515625 -7.3125 C 2.796875 -7.320312 2.976562 -7.203125 3.0625 -6.953125 C 3.195312 -6.585938 3.035156 -6.078125 2.578125 -5.421875 C 2.128906 -4.773438 1.46875 -4.082031 0.59375 -3.34375 C 0.320312 -2.488281 0.191406 -1.816406 0.203125 -1.328125 C 0.210938 -0.847656 0.28125 -0.5 0.40625 -0.28125 C 0.53125 -0.0703125 0.628906 0.0625 0.703125 0.125 C 1.066406 0.394531 1.535156 0.320312 2.109375 -0.09375 C 2.671875 -0.488281 3.238281 -1 3.8125 -1.625 C 4.394531 -2.257812 5.03125 -3.0625 5.71875 -4.03125 C 5.78125 -4.101562 5.859375 -4.144531 5.953125 -4.15625 C 6.046875 -4.175781 6.128906 -4.15625 6.203125 -4.09375 Z M 2.390625 -6.546875 C 2.253906 -6.453125 2.066406 -6.269531 1.828125 -6 C 1.597656 -5.726562 1.363281 -5.328125 1.125 -4.796875 C 1.5625 -5.222656 1.867188 -5.585938 2.046875 -5.890625 C 2.234375 -6.191406 2.347656 -6.410156 2.390625 -6.546875 Z M 2.390625 -6.546875 "/></g></g></g><g fill="#000000" fill-opacity="1"><g transform="translate(137.521873, 37.374106)"><g><path d="M 15.515625 -10.84375 C 15.566406 -10.769531 15.585938 -10.679688 15.578125 -10.578125 C 15.566406 -10.484375 15.519531 -10.40625 15.4375 -10.34375 C 15.289062 -10.25 15.148438 -10.253906 15.015625 -10.359375 C 14.847656 -10.421875 14.476562 -10.460938 13.90625 -10.484375 C 13.34375 -10.515625 12.628906 -10.53125 11.765625 -10.53125 C 10.910156 -10.539062 9.96875 -10.539062 8.9375 -10.53125 C 7.914062 -10.519531 6.863281 -10.503906 5.78125 -10.484375 C 4.695312 -10.460938 3.644531 -10.441406 2.625 -10.421875 C 2.25 -8.828125 1.851562 -7.09375 1.4375 -5.21875 C 1.019531 -3.351562 0.609375 -1.460938 0.203125 0.453125 C -0.328125 2.984375 -0.734375 5.054688 -1.015625 6.671875 C -1.304688 8.285156 -1.492188 9.457031 -1.578125 10.1875 C -1.554688 10.1875 -1.53125 10.191406 -1.5 10.203125 C -1.40625 10.222656 -1.335938 10.28125 -1.296875 10.375 C -1.265625 10.46875 -1.265625 10.554688 -1.296875 10.640625 C -1.378906 10.847656 -1.460938 11.039062 -1.546875 11.21875 C -1.640625 11.394531 -1.765625 11.484375 -1.921875 11.484375 C -1.960938 11.484375 -2.007812 11.476562 -2.0625 11.46875 C -2.226562 11.40625 -2.320312 11.269531 -2.34375 11.0625 C -2.363281 10.863281 -2.347656 10.585938 -2.296875 10.234375 C -2.242188 9.722656 -2.132812 8.984375 -1.96875 8.015625 C -1.820312 7.109375 -1.628906 6.046875 -1.390625 4.828125 C -1.160156 3.617188 -0.894531 2.289062 -0.59375 0.84375 C -0.1875 -1.113281 0.226562 -3.0625 0.65625 -5 C 1.082031 -6.9375 1.492188 -8.738281 1.890625 -10.40625 C 1.304688 -10.382812 0.75 -10.367188 0.21875 -10.359375 C -0.300781 -10.347656 -0.78125 -10.335938 -1.21875 -10.328125 C -2.03125 -10.304688 -2.742188 -10.285156 -3.359375 -10.265625 C -3.972656 -10.253906 -4.410156 -10.25 -4.671875 -10.25 C -4.765625 -10.25 -4.84375 -10.28125 -4.90625 -10.34375 C -4.976562 -10.414062 -5.015625 -10.503906 -5.015625 -10.609375 C -5.015625 -10.703125 -4.976562 -10.78125 -4.90625 -10.84375 C -4.84375 -10.914062 -4.765625 -10.953125 -4.671875 -10.953125 C -4.410156 -10.953125 -3.976562 -10.957031 -3.375 -10.96875 C -2.769531 -10.988281 -2.054688 -11.015625 -1.234375 -11.046875 C -0.640625 -11.054688 -0.0703125 -11.066406 0.46875 -11.078125 C 1.019531 -11.085938 1.554688 -11.097656 2.078125 -11.109375 C 2.265625 -11.898438 2.445312 -12.640625 2.625 -13.328125 C 2.800781 -14.023438 2.96875 -14.660156 3.125 -15.234375 C 3.144531 -15.328125 3.195312 -15.398438 3.28125 -15.453125 C 3.375 -15.503906 3.460938 -15.515625 3.546875 -15.484375 C 3.640625 -15.460938 3.710938 -15.410156 3.765625 -15.328125 C 3.816406 -15.242188 3.828125 -15.148438 3.796875 -15.046875 C 3.503906 -13.953125 3.171875 -12.648438 2.796875 -11.140625 C 4.703125 -11.171875 6.332031 -11.195312 7.6875 -11.21875 C 9.050781 -11.238281 10.191406 -11.25 11.109375 -11.25 C 12.035156 -11.25 12.78125 -11.234375 13.34375 -11.203125 C 13.914062 -11.179688 14.347656 -11.15625 14.640625 -11.125 C 14.929688 -11.09375 15.140625 -11.050781 15.265625 -11 C 15.390625 -10.957031 15.472656 -10.90625 15.515625 -10.84375 Z M 15.515625 -10.84375 "/></g></g></g><g fill="#000000" fill-opacity="1"><g transform="translate(139.964953, 37.374106)"><g><path d="M 8.0625 -4.171875 C 8.144531 -4.117188 8.207031 -4.046875 8.25 -3.953125 C 8.289062 -3.867188 8.285156 -3.78125 8.234375 -3.6875 C 8.003906 -3.1875 7.71875 -2.625 7.375 -2 C 7.039062 -1.375 6.679688 -0.742188 6.296875 -0.109375 C 5.921875 0.515625 5.535156 1.085938 5.140625 1.609375 C 4.753906 2.128906 4.375 2.550781 4 2.875 C 3.632812 3.195312 3.304688 3.359375 3.015625 3.359375 C 2.929688 3.359375 2.851562 3.34375 2.78125 3.3125 C 2.519531 3.207031 2.347656 2.972656 2.265625 2.609375 C 2.191406 2.242188 2.203125 1.71875 2.296875 1.03125 C 2.460938 -0.207031 2.914062 -1.957031 3.65625 -4.21875 C 3.644531 -4.21875 3.632812 -4.210938 3.625 -4.203125 C 3.625 -4.203125 3.613281 -4.203125 3.59375 -4.203125 C 3.351562 -4.035156 3.0625 -3.859375 2.71875 -3.671875 C 2.375 -3.492188 2.019531 -3.375 1.65625 -3.3125 C 1.289062 -3.25 0.941406 -3.328125 0.609375 -3.546875 C 0.140625 -3.878906 -0.0976562 -4.335938 -0.109375 -4.921875 C -0.117188 -5.515625 0.0976562 -6.160156 0.546875 -6.859375 C 0.691406 -7.078125 0.882812 -7.320312 1.125 -7.59375 C 1.363281 -7.863281 1.613281 -8.070312 1.875 -8.21875 C 2.144531 -8.363281 2.382812 -8.367188 2.59375 -8.234375 C 2.695312 -8.171875 2.773438 -8.066406 2.828125 -7.921875 C 2.890625 -7.773438 2.890625 -7.546875 2.828125 -7.234375 C 2.765625 -6.929688 2.617188 -6.519531 2.390625 -6 C 2.160156 -5.488281 1.8125 -4.820312 1.34375 -4 C 1.625 -3.96875 1.9375 -4.046875 2.28125 -4.234375 C 2.632812 -4.429688 2.945312 -4.617188 3.21875 -4.796875 C 3.46875 -4.960938 3.675781 -5.085938 3.84375 -5.171875 C 4.019531 -5.253906 4.1875 -5.238281 4.34375 -5.125 C 4.46875 -5.019531 4.519531 -4.882812 4.5 -4.71875 C 4.476562 -4.5625 4.453125 -4.441406 4.421875 -4.359375 C 4.023438 -3.078125 3.710938 -2.015625 3.484375 -1.171875 C 3.265625 -0.328125 3.113281 0.347656 3.03125 0.859375 C 2.957031 1.378906 2.921875 1.765625 2.921875 2.015625 C 2.921875 2.273438 2.9375 2.441406 2.96875 2.515625 C 3.007812 2.597656 3.03125 2.648438 3.03125 2.671875 C 3.175781 2.691406 3.476562 2.453125 3.9375 1.953125 C 4.394531 1.460938 4.941406 0.71875 5.578125 -0.28125 C 6.222656 -1.28125 6.894531 -2.515625 7.59375 -3.984375 C 7.632812 -4.085938 7.703125 -4.148438 7.796875 -4.171875 C 7.890625 -4.203125 7.976562 -4.203125 8.0625 -4.171875 Z M 0.65625 -5.421875 C 0.582031 -5.160156 0.5625 -4.945312 0.59375 -4.78125 C 0.625 -4.613281 0.671875 -4.484375 0.734375 -4.390625 C 1.128906 -5.078125 1.425781 -5.632812 1.625 -6.0625 C 1.820312 -6.488281 1.957031 -6.816406 2.03125 -7.046875 C 2.113281 -7.285156 2.160156 -7.453125 2.171875 -7.546875 C 2.035156 -7.472656 1.863281 -7.332031 1.65625 -7.125 C 1.457031 -6.914062 1.265625 -6.664062 1.078125 -6.375 C 0.890625 -6.082031 0.75 -5.765625 0.65625 -5.421875 Z M 0.65625 -5.421875 "/></g></g></g><g fill="#000000" fill-opacity="1"><g transform="translate(147.294185, 37.374106)"><g><path d="M 7.328125 -3.96875 C 7.398438 -3.914062 7.445312 -3.835938 7.46875 -3.734375 C 7.5 -3.640625 7.488281 -3.554688 7.4375 -3.484375 C 7.34375 -3.328125 7.1875 -3.082031 6.96875 -2.75 C 6.757812 -2.425781 6.503906 -2.0625 6.203125 -1.65625 C 5.898438 -1.257812 5.578125 -0.875 5.234375 -0.5 C 4.898438 -0.125 4.566406 0.179688 4.234375 0.421875 C 3.910156 0.671875 3.609375 0.796875 3.328125 0.796875 C 3.222656 0.796875 3.132812 0.773438 3.0625 0.734375 C 2.757812 0.617188 2.566406 0.335938 2.484375 -0.109375 C 2.410156 -0.566406 2.441406 -1.222656 2.578125 -2.078125 C 2.410156 -1.867188 2.234375 -1.65625 2.046875 -1.4375 C 1.867188 -1.21875 1.675781 -1.015625 1.46875 -0.828125 C 1.15625 -0.554688 0.882812 -0.441406 0.65625 -0.484375 C 0.4375 -0.535156 0.289062 -0.601562 0.21875 -0.6875 C 0 -0.863281 -0.132812 -1.140625 -0.1875 -1.515625 C -0.25 -1.890625 -0.234375 -2.304688 -0.140625 -2.765625 C -0.046875 -3.222656 0.125 -3.664062 0.375 -4.09375 C 0.414062 -4.175781 0.484375 -4.226562 0.578125 -4.25 C 0.679688 -4.28125 0.773438 -4.269531 0.859375 -4.21875 C 0.953125 -4.175781 1.007812 -4.109375 1.03125 -4.015625 C 1.050781 -3.921875 1.039062 -3.832031 1 -3.75 C 0.769531 -3.382812 0.617188 -3.019531 0.546875 -2.65625 C 0.472656 -2.289062 0.453125 -1.976562 0.484375 -1.71875 C 0.515625 -1.46875 0.570312 -1.304688 0.65625 -1.234375 C 0.707031 -1.191406 0.769531 -1.195312 0.84375 -1.25 C 0.925781 -1.3125 0.984375 -1.347656 1.015625 -1.359375 C 1.242188 -1.566406 1.460938 -1.804688 1.671875 -2.078125 C 1.878906 -2.347656 2.054688 -2.59375 2.203125 -2.8125 C 2.398438 -3.082031 2.5625 -3.28125 2.6875 -3.40625 C 2.820312 -3.53125 2.972656 -3.554688 3.140625 -3.484375 C 3.316406 -3.429688 3.40625 -3.300781 3.40625 -3.09375 C 3.40625 -2.882812 3.375 -2.597656 3.3125 -2.234375 C 3.1875 -1.523438 3.128906 -1.007812 3.140625 -0.6875 C 3.148438 -0.363281 3.179688 -0.15625 3.234375 -0.0625 C 3.285156 0.03125 3.316406 0.078125 3.328125 0.078125 C 3.472656 0.140625 3.875 -0.148438 4.53125 -0.796875 C 5.195312 -1.441406 5.960938 -2.460938 6.828125 -3.859375 C 6.878906 -3.941406 6.953125 -3.992188 7.046875 -4.015625 C 7.148438 -4.035156 7.242188 -4.019531 7.328125 -3.96875 Z M 7.328125 -3.96875 "/></g></g></g><g fill="#000000" fill-opacity="1"><g transform="translate(153.870288, 37.374106)"><g><path d="M 6.078125 -4.171875 C 6.148438 -4.117188 6.195312 -4.039062 6.21875 -3.9375 C 6.25 -3.84375 6.234375 -3.757812 6.171875 -3.6875 C 5.585938 -2.78125 5.003906 -1.941406 4.421875 -1.171875 C 3.847656 -0.398438 3.28125 0.222656 2.71875 0.703125 C 2.164062 1.179688 1.628906 1.421875 1.109375 1.421875 C 0.992188 1.421875 0.878906 1.40625 0.765625 1.375 C 0.328125 1.28125 -0.00390625 1.023438 -0.234375 0.609375 C -0.421875 0.273438 -0.53125 -0.101562 -0.5625 -0.53125 C -0.59375 -0.96875 -0.570312 -1.410156 -0.5 -1.859375 C -0.425781 -2.316406 -0.316406 -2.742188 -0.171875 -3.140625 C 0.078125 -3.816406 0.390625 -4.335938 0.765625 -4.703125 C 1.140625 -5.066406 1.488281 -5.195312 1.8125 -5.09375 C 1.875 -5.082031 1.960938 -5.023438 2.078125 -4.921875 C 2.203125 -4.828125 2.289062 -4.660156 2.34375 -4.421875 C 2.40625 -4.191406 2.378906 -3.859375 2.265625 -3.421875 C 2.234375 -3.316406 2.175781 -3.238281 2.09375 -3.1875 C 2.019531 -3.144531 1.9375 -3.132812 1.84375 -3.15625 C 1.738281 -3.1875 1.660156 -3.242188 1.609375 -3.328125 C 1.566406 -3.410156 1.554688 -3.492188 1.578125 -3.578125 C 1.648438 -3.878906 1.675781 -4.09375 1.65625 -4.21875 C 1.644531 -4.34375 1.625 -4.410156 1.59375 -4.421875 C 1.550781 -4.421875 1.410156 -4.320312 1.171875 -4.125 C 0.941406 -3.925781 0.71875 -3.515625 0.5 -2.890625 C 0.28125 -2.304688 0.160156 -1.71875 0.140625 -1.125 C 0.117188 -0.53125 0.203125 -0.0703125 0.390625 0.25 C 0.503906 0.488281 0.679688 0.632812 0.921875 0.6875 C 1.253906 0.757812 1.628906 0.644531 2.046875 0.34375 C 2.460938 0.0390625 2.878906 -0.363281 3.296875 -0.875 C 3.722656 -1.382812 4.132812 -1.925781 4.53125 -2.5 C 4.925781 -3.070312 5.28125 -3.597656 5.59375 -4.078125 C 5.632812 -4.148438 5.703125 -4.195312 5.796875 -4.21875 C 5.898438 -4.25 5.992188 -4.234375 6.078125 -4.171875 Z M 6.078125 -4.171875 "/></g></g></g><g fill="#000000" fill-opacity="1"><g transform="translate(159.307515, 37.374106)"><g><path d="M 8.703125 -4.203125 C 8.773438 -4.160156 8.820312 -4.085938 8.84375 -3.984375 C 8.875 -3.890625 8.863281 -3.800781 8.8125 -3.71875 C 8.226562 -2.769531 7.707031 -2 7.25 -1.40625 C 6.800781 -0.820312 6.414062 -0.375 6.09375 -0.0625 C 5.769531 0.238281 5.492188 0.441406 5.265625 0.546875 C 5.046875 0.660156 4.867188 0.71875 4.734375 0.71875 C 4.597656 0.71875 4.492188 0.710938 4.421875 0.703125 C 4.140625 0.628906 3.929688 0.457031 3.796875 0.1875 C 3.660156 -0.0703125 3.570312 -0.34375 3.53125 -0.625 C 3.488281 -0.90625 3.460938 -1.117188 3.453125 -1.265625 C 3.429688 -1.691406 3.382812 -1.976562 3.3125 -2.125 C 3.238281 -2.28125 3.179688 -2.359375 3.140625 -2.359375 C 3.128906 -2.359375 3.125 -2.359375 3.125 -2.359375 C 2.96875 -2.359375 2.703125 -2.132812 2.328125 -1.6875 C 1.960938 -1.238281 1.53125 -0.535156 1.03125 0.421875 C 0.539062 1.378906 0.0234375 2.625 -0.515625 4.15625 C -0.566406 4.3125 -0.675781 4.390625 -0.84375 4.390625 C -0.863281 4.390625 -0.890625 4.390625 -0.921875 4.390625 C -1.117188 4.335938 -1.207031 4.21875 -1.1875 4.03125 C -1.175781 3.820312 -1.117188 3.445312 -1.015625 2.90625 C -0.921875 2.363281 -0.789062 1.710938 -0.625 0.953125 C -0.46875 0.203125 -0.285156 -0.609375 -0.078125 -1.484375 C 0.117188 -2.367188 0.320312 -3.265625 0.53125 -4.171875 C 0.75 -5.078125 0.957031 -5.941406 1.15625 -6.765625 C 1.351562 -7.597656 1.53125 -8.34375 1.6875 -9 C 1.84375 -9.664062 1.96875 -10.195312 2.0625 -10.59375 C 2.164062 -10.988281 2.21875 -11.191406 2.21875 -11.203125 C 2.5 -12.335938 2.8125 -13.363281 3.15625 -14.28125 C 3.5 -15.207031 3.835938 -15.953125 4.171875 -16.515625 C 4.515625 -17.078125 4.816406 -17.382812 5.078125 -17.4375 C 5.285156 -17.476562 5.441406 -17.414062 5.546875 -17.25 C 5.722656 -17.007812 5.707031 -16.5 5.5 -15.71875 C 5.300781 -14.9375 4.929688 -13.953125 4.390625 -12.765625 C 3.859375 -11.578125 3.1875 -10.25 2.375 -8.78125 C 2.15625 -7.863281 1.910156 -6.859375 1.640625 -5.765625 C 1.378906 -4.679688 1.125 -3.585938 0.875 -2.484375 C 0.625 -1.378906 0.394531 -0.363281 0.1875 0.5625 C 0.519531 -0.132812 0.859375 -0.765625 1.203125 -1.328125 C 1.554688 -1.890625 1.90625 -2.328125 2.25 -2.640625 C 2.601562 -2.953125 2.929688 -3.085938 3.234375 -3.046875 C 3.503906 -3.015625 3.703125 -2.878906 3.828125 -2.640625 C 3.960938 -2.410156 4.050781 -2.160156 4.09375 -1.890625 C 4.132812 -1.628906 4.15625 -1.441406 4.15625 -1.328125 C 4.1875 -0.867188 4.242188 -0.535156 4.328125 -0.328125 C 4.421875 -0.117188 4.507812 -0.0078125 4.59375 0 C 4.613281 0.0078125 4.691406 -0.00390625 4.828125 -0.046875 C 4.972656 -0.0859375 5.179688 -0.222656 5.453125 -0.453125 C 5.734375 -0.691406 6.097656 -1.09375 6.546875 -1.65625 C 7.003906 -2.226562 7.5625 -3.039062 8.21875 -4.09375 C 8.257812 -4.164062 8.328125 -4.210938 8.421875 -4.234375 C 8.523438 -4.265625 8.617188 -4.253906 8.703125 -4.203125 Z M 4.9375 -16.40625 C 4.726562 -16.101562 4.445312 -15.5625 4.09375 -14.78125 C 3.75 -14 3.398438 -12.941406 3.046875 -11.609375 C 3.671875 -12.847656 4.125 -13.863281 4.40625 -14.65625 C 4.695312 -15.457031 4.875 -16.039062 4.9375 -16.40625 Z M 4.9375 -16.40625 "/></g></g></g><g fill="#000000" fill-opacity="1"><g transform="translate(167.224555, 37.374106)"><g><path d="M 8.984375 -4.046875 C 9.046875 -3.972656 9.0625 -3.882812 9.03125 -3.78125 C 9.007812 -3.6875 8.960938 -3.613281 8.890625 -3.5625 C 7.992188 -2.976562 7.09375 -2.34375 6.1875 -1.65625 C 5.289062 -0.976562 4.414062 -0.210938 3.5625 0.640625 C 2.84375 4.960938 2.050781 8.472656 1.1875 11.171875 C 1.007812 11.722656 0.8125 12.28125 0.59375 12.84375 C 0.382812 13.414062 0.15625 13.953125 -0.09375 14.453125 C -0.351562 14.953125 -0.625 15.367188 -0.90625 15.703125 C -1.1875 16.035156 -1.472656 16.242188 -1.765625 16.328125 C -1.847656 16.359375 -1.941406 16.375 -2.046875 16.375 C -2.328125 16.375 -2.570312 16.25 -2.78125 16 C -3.03125 15.675781 -3.195312 15.175781 -3.28125 14.5 C -3.363281 13.820312 -3.347656 13.03125 -3.234375 12.125 C -3.117188 11.21875 -2.90625 10.253906 -2.59375 9.234375 C -2.28125 8.222656 -1.863281 7.210938 -1.34375 6.203125 C -0.707031 4.992188 -0.03125 3.90625 0.6875 2.9375 C 1.40625 1.96875 2.148438 1.085938 2.921875 0.296875 C 3.109375 -0.859375 3.289062 -2.066406 3.46875 -3.328125 C 3.3125 -3.078125 3.140625 -2.828125 2.953125 -2.578125 C 2.773438 -2.328125 2.59375 -2.09375 2.40625 -1.875 C 2.164062 -1.582031 1.941406 -1.390625 1.734375 -1.296875 C 1.523438 -1.210938 1.34375 -1.179688 1.1875 -1.203125 C 1.039062 -1.234375 0.929688 -1.273438 0.859375 -1.328125 C 0.585938 -1.484375 0.40625 -1.765625 0.3125 -2.171875 C 0.21875 -2.585938 0.207031 -3.078125 0.28125 -3.640625 C 0.351562 -4.203125 0.507812 -4.789062 0.75 -5.40625 C 0.789062 -5.488281 0.851562 -5.546875 0.9375 -5.578125 C 1.03125 -5.617188 1.125 -5.625 1.21875 -5.59375 C 1.300781 -5.550781 1.363281 -5.488281 1.40625 -5.40625 C 1.445312 -5.320312 1.453125 -5.226562 1.421875 -5.125 C 1.171875 -4.550781 1.015625 -4.035156 0.953125 -3.578125 C 0.898438 -3.117188 0.90625 -2.742188 0.96875 -2.453125 C 1.03125 -2.160156 1.117188 -1.984375 1.234375 -1.921875 C 1.367188 -1.835938 1.578125 -1.96875 1.859375 -2.3125 C 2.097656 -2.601562 2.335938 -2.925781 2.578125 -3.28125 C 2.828125 -3.644531 3.050781 -3.988281 3.25 -4.3125 C 3.457031 -4.632812 3.625 -4.898438 3.75 -5.109375 C 3.84375 -5.273438 3.984375 -5.332031 4.171875 -5.28125 C 4.359375 -5.195312 4.4375 -5.066406 4.40625 -4.890625 C 4.195312 -3.359375 3.984375 -1.90625 3.765625 -0.53125 C 4.535156 -1.25 5.316406 -1.898438 6.109375 -2.484375 C 6.910156 -3.078125 7.707031 -3.632812 8.5 -4.15625 C 8.582031 -4.195312 8.671875 -4.207031 8.765625 -4.1875 C 8.859375 -4.175781 8.929688 -4.128906 8.984375 -4.046875 Z M 0.515625 10.96875 C 1.296875 8.519531 2.023438 5.390625 2.703125 1.578125 C 2.085938 2.265625 1.492188 3.015625 0.921875 3.828125 C 0.347656 4.640625 -0.195312 5.546875 -0.71875 6.546875 C -1.269531 7.609375 -1.691406 8.632812 -1.984375 9.625 C -2.273438 10.613281 -2.460938 11.519531 -2.546875 12.34375 C -2.628906 13.164062 -2.632812 13.851562 -2.5625 14.40625 C -2.5 14.96875 -2.382812 15.347656 -2.21875 15.546875 C -2.15625 15.617188 -2.101562 15.65625 -2.0625 15.65625 C -2.019531 15.664062 -1.988281 15.664062 -1.96875 15.65625 C -1.914062 15.644531 -1.820312 15.585938 -1.6875 15.484375 C -1.550781 15.378906 -1.375 15.171875 -1.15625 14.859375 C -0.9375 14.546875 -0.6875 14.078125 -0.40625 13.453125 C -0.125 12.835938 0.179688 12.007812 0.515625 10.96875 Z M 0.515625 10.96875 "/></g></g></g><g fill="#000000" fill-opacity="1"><g transform="translate(175.362021, 37.374106)"><g><path d="M 7.921875 -4.140625 C 7.992188 -4.085938 8.039062 -4.007812 8.0625 -3.90625 C 8.09375 -3.8125 8.082031 -3.726562 8.03125 -3.65625 C 7.726562 -3.15625 7.332031 -2.628906 6.84375 -2.078125 C 6.363281 -1.523438 5.847656 -1.003906 5.296875 -0.515625 C 4.742188 -0.0351562 4.191406 0.351562 3.640625 0.65625 C 3.085938 0.96875 2.59375 1.125 2.15625 1.125 C 2.050781 1.125 1.957031 1.117188 1.875 1.109375 C 1.675781 1.066406 1.46875 0.957031 1.25 0.78125 C 1.03125 0.601562 0.878906 0.285156 0.796875 -0.171875 C 0.765625 -0.285156 0.789062 -0.390625 0.875 -0.484375 C 0.96875 -0.585938 1.101562 -0.71875 1.28125 -0.875 C 1.425781 -1 1.585938 -1.144531 1.765625 -1.3125 C 1.953125 -1.488281 2.125 -1.675781 2.28125 -1.875 C 2.519531 -2.207031 2.675781 -2.507812 2.75 -2.78125 C 2.820312 -3.0625 2.847656 -3.253906 2.828125 -3.359375 C 2.765625 -3.335938 2.640625 -3.242188 2.453125 -3.078125 C 2.273438 -2.921875 2.035156 -2.601562 1.734375 -2.125 C 1.359375 -1.570312 1.023438 -0.957031 0.734375 -0.28125 C 0.453125 0.394531 0.191406 1.085938 -0.046875 1.796875 C -0.296875 2.503906 -0.519531 3.1875 -0.71875 3.84375 L -0.8125 4.09375 C -0.851562 4.257812 -0.960938 4.34375 -1.140625 4.34375 C -1.160156 4.34375 -1.175781 4.34375 -1.1875 4.34375 C -1.394531 4.300781 -1.492188 4.175781 -1.484375 3.96875 C -1.484375 3.875 -1.4375 3.59375 -1.34375 3.125 C -1.257812 2.664062 -1.140625 2.078125 -0.984375 1.359375 C -0.828125 0.648438 -0.65625 -0.140625 -0.46875 -1.015625 C -0.28125 -1.890625 -0.0820312 -2.789062 0.125 -3.71875 C 0.34375 -4.644531 0.550781 -5.550781 0.75 -6.4375 C 0.957031 -7.320312 1.148438 -8.140625 1.328125 -8.890625 C 1.335938 -8.921875 1.34375 -8.953125 1.34375 -8.984375 C 1.5625 -9.898438 1.734375 -10.617188 1.859375 -11.140625 C 2.140625 -12.265625 2.453125 -13.285156 2.796875 -14.203125 C 3.140625 -15.128906 3.476562 -15.867188 3.8125 -16.421875 C 4.144531 -16.984375 4.445312 -17.296875 4.71875 -17.359375 C 4.914062 -17.398438 5.078125 -17.332031 5.203125 -17.15625 C 5.367188 -16.925781 5.347656 -16.425781 5.140625 -15.65625 C 4.941406 -14.882812 4.570312 -13.90625 4.03125 -12.71875 C 3.5 -11.53125 2.828125 -10.203125 2.015625 -8.734375 C 1.835938 -7.972656 1.644531 -7.140625 1.4375 -6.234375 C 1.226562 -5.335938 1.019531 -4.421875 0.8125 -3.484375 C 0.601562 -2.554688 0.40625 -1.671875 0.21875 -0.828125 C 0.351562 -1.117188 0.492188 -1.40625 0.640625 -1.6875 C 0.796875 -1.976562 0.957031 -2.253906 1.125 -2.515625 C 1.820312 -3.597656 2.421875 -4.117188 2.921875 -4.078125 C 3.179688 -4.054688 3.359375 -3.921875 3.453125 -3.671875 C 3.578125 -3.421875 3.578125 -3.082031 3.453125 -2.65625 C 3.328125 -2.226562 3.117188 -1.820312 2.828125 -1.4375 C 2.660156 -1.21875 2.476562 -1.015625 2.28125 -0.828125 C 2.082031 -0.640625 1.90625 -0.476562 1.75 -0.34375 C 1.707031 -0.3125 1.664062 -0.273438 1.625 -0.234375 C 1.582031 -0.203125 1.550781 -0.171875 1.53125 -0.140625 C 1.570312 0.0664062 1.640625 0.207031 1.734375 0.28125 C 1.835938 0.351562 1.925781 0.394531 2 0.40625 C 2.269531 0.457031 2.628906 0.375 3.078125 0.15625 C 3.523438 -0.0625 4.007812 -0.378906 4.53125 -0.796875 C 5.050781 -1.210938 5.566406 -1.695312 6.078125 -2.25 C 6.597656 -2.8125 7.046875 -3.40625 7.421875 -4.03125 C 7.472656 -4.113281 7.546875 -4.160156 7.640625 -4.171875 C 7.742188 -4.191406 7.835938 -4.179688 7.921875 -4.140625 Z M 4.578125 -16.328125 C 4.367188 -16.023438 4.085938 -15.484375 3.734375 -14.703125 C 3.390625 -13.929688 3.046875 -12.878906 2.703125 -11.546875 C 3.316406 -12.773438 3.765625 -13.785156 4.046875 -14.578125 C 4.335938 -15.378906 4.515625 -15.960938 4.578125 -16.328125 Z M 4.578125 -16.328125 "/></g></g></g><g fill="#000000" fill-opacity="1"><g transform="translate(95.395753, 59.498626)"><g><path d="M 0.890625 -2.046875 L 1.84375 -2.046875 C 2.082031 -2.046875 2.28125 -2.128906 2.4375 -2.296875 C 2.59375 -2.460938 2.671875 -2.664062 2.671875 -2.90625 C 2.671875 -3.144531 2.597656 -3.34375 2.453125 -3.5 C 2.296875 -3.65625 2.09375 -3.734375 1.84375 -3.734375 L 0.890625 -3.734375 Z M 3.109375 -2.890625 C 3.109375 -2.535156 2.976562 -2.238281 2.71875 -2 C 2.46875 -1.757812 2.15625 -1.640625 1.78125 -1.640625 L 0.890625 -1.640625 L 0.890625 0 L 0.453125 0 L 0.453125 -4.140625 L 1.78125 -4.140625 C 2.144531 -4.140625 2.457031 -4.023438 2.71875 -3.796875 C 2.976562 -3.554688 3.109375 -3.253906 3.109375 -2.890625 Z M 3.109375 -2.890625 "/></g></g></g><g fill="#000000" fill-opacity="1"><g transform="translate(100.506994, 59.498626)"><g><path d="M 0.890625 0 L 0.453125 0 L 0.453125 -4.140625 L 0.890625 -4.140625 L 0.890625 -2.28125 L 2.765625 -2.28125 L 2.765625 -4.140625 L 3.1875 -4.140625 L 3.1875 0 L 2.765625 0 L 2.765625 -1.859375 L 0.890625 -1.859375 Z M 0.890625 0 "/></g></g></g><g fill="#000000" fill-opacity="1"><g transform="translate(106.045193, 59.498626)"><g><path d="M 4.109375 -2.078125 C 4.109375 -2.546875 3.941406 -2.945312 3.609375 -3.28125 C 3.273438 -3.613281 2.875 -3.78125 2.40625 -3.78125 C 1.9375 -3.78125 1.535156 -3.613281 1.203125 -3.28125 C 0.867188 -2.945312 0.703125 -2.546875 0.703125 -2.078125 C 0.703125 -1.609375 0.867188 -1.207031 1.203125 -0.875 C 1.535156 -0.539062 1.9375 -0.375 2.40625 -0.375 C 2.875 -0.375 3.273438 -0.539062 3.609375 -0.875 C 3.941406 -1.207031 4.109375 -1.609375 4.109375 -2.078125 Z M 4.53125 -2.078125 C 4.53125 -1.785156 4.476562 -1.507812 4.375 -1.25 C 4.257812 -0.988281 4.101562 -0.765625 3.90625 -0.578125 C 3.71875 -0.378906 3.492188 -0.226562 3.234375 -0.125 C 2.972656 -0.0078125 2.695312 0.046875 2.40625 0.046875 C 2.113281 0.046875 1.835938 -0.0078125 1.578125 -0.125 C 1.316406 -0.226562 1.09375 -0.378906 0.90625 -0.578125 C 0.707031 -0.765625 0.550781 -0.988281 0.4375 -1.25 C 0.332031 -1.507812 0.28125 -1.785156 0.28125 -2.078125 C 0.28125 -2.367188 0.332031 -2.644531 0.4375 -2.90625 C 0.550781 -3.164062 0.707031 -3.394531 0.90625 -3.59375 C 1.09375 -3.78125 1.316406 -3.929688 1.578125 -4.046875 C 1.835938 -4.148438 2.113281 -4.203125 2.40625 -4.203125 C 2.695312 -4.203125 2.972656 -4.148438 3.234375 -4.046875 C 3.492188 -3.929688 3.71875 -3.78125 3.90625 -3.59375 C 4.101562 -3.394531 4.257812 -3.164062 4.375 -2.90625 C 4.476562 -2.644531 4.53125 -2.367188 4.53125 -2.078125 Z M 4.53125 -2.078125 "/></g></g></g><g fill="#000000" fill-opacity="1"><g transform="translate(112.742269, 59.498626)"><g><path d="M 0.125 -3.765625 L 0.125 -4.15625 L 2.5625 -4.15625 L 2.5625 -3.765625 L 1.546875 -3.765625 L 1.546875 -0.015625 L 1.125 -0.015625 L 1.125 -3.765625 Z M 0.125 -3.765625 "/></g></g></g><g fill="#000000" fill-opacity="1"><g transform="translate(117.310675, 59.498626)"><g><path d="M 4.109375 -2.078125 C 4.109375 -2.546875 3.941406 -2.945312 3.609375 -3.28125 C 3.273438 -3.613281 2.875 -3.78125 2.40625 -3.78125 C 1.9375 -3.78125 1.535156 -3.613281 1.203125 -3.28125 C 0.867188 -2.945312 0.703125 -2.546875 0.703125 -2.078125 C 0.703125 -1.609375 0.867188 -1.207031 1.203125 -0.875 C 1.535156 -0.539062 1.9375 -0.375 2.40625 -0.375 C 2.875 -0.375 3.273438 -0.539062 3.609375 -0.875 C 3.941406 -1.207031 4.109375 -1.609375 4.109375 -2.078125 Z M 4.53125 -2.078125 C 4.53125 -1.785156 4.476562 -1.507812 4.375 -1.25 C 4.257812 -0.988281 4.101562 -0.765625 3.90625 -0.578125 C 3.71875 -0.378906 3.492188 -0.226562 3.234375 -0.125 C 2.972656 -0.0078125 2.695312 0.046875 2.40625 0.046875 C 2.113281 0.046875 1.835938 -0.0078125 1.578125 -0.125 C 1.316406 -0.226562 1.09375 -0.378906 0.90625 -0.578125 C 0.707031 -0.765625 0.550781 -0.988281 0.4375 -1.25 C 0.332031 -1.507812 0.28125 -1.785156 0.28125 -2.078125 C 0.28125 -2.367188 0.332031 -2.644531 0.4375 -2.90625 C 0.550781 -3.164062 0.707031 -3.394531 0.90625 -3.59375 C 1.09375 -3.78125 1.316406 -3.929688 1.578125 -4.046875 C 1.835938 -4.148438 2.113281 -4.203125 2.40625 -4.203125 C 2.695312 -4.203125 2.972656 -4.148438 3.234375 -4.046875 C 3.492188 -3.929688 3.71875 -3.78125 3.90625 -3.59375 C 4.101562 -3.394531 4.257812 -3.164062 4.375 -2.90625 C 4.476562 -2.644531 4.53125 -2.367188 4.53125 -2.078125 Z M 4.53125 -2.078125 "/></g></g></g><g fill="#000000" fill-opacity="1"><g transform="translate(124.007751, 59.498626)"><g><path d="M 4.546875 -1.9375 L 4.5 -1.6875 C 4.414062 -1.175781 4.171875 -0.757812 3.765625 -0.4375 C 3.359375 -0.113281 2.90625 0.046875 2.40625 0.046875 C 2.113281 0.046875 1.835938 -0.0078125 1.578125 -0.125 C 1.316406 -0.226562 1.09375 -0.378906 0.90625 -0.578125 C 0.707031 -0.765625 0.550781 -0.988281 0.4375 -1.25 C 0.332031 -1.507812 0.28125 -1.789062 0.28125 -2.09375 C 0.28125 -2.382812 0.332031 -2.660156 0.4375 -2.921875 C 0.550781 -3.179688 0.707031 -3.40625 0.90625 -3.59375 C 1.09375 -3.789062 1.316406 -3.945312 1.578125 -4.0625 C 1.835938 -4.164062 2.097656 -4.21875 2.359375 -4.21875 C 2.859375 -4.21875 3.296875 -4.078125 3.671875 -3.796875 C 4.054688 -3.515625 4.316406 -3.144531 4.453125 -2.6875 L 4 -2.6875 C 3.875 -3.03125 3.664062 -3.300781 3.375 -3.5 C 3.082031 -3.695312 2.757812 -3.796875 2.40625 -3.796875 C 1.9375 -3.796875 1.535156 -3.628906 1.203125 -3.296875 C 0.867188 -2.960938 0.703125 -2.5625 0.703125 -2.09375 C 0.703125 -1.625 0.867188 -1.222656 1.203125 -0.890625 C 1.523438 -0.546875 1.925781 -0.375 2.40625 -0.375 C 2.78125 -0.375 3.125 -0.484375 3.4375 -0.703125 C 3.738281 -0.921875 3.953125 -1.207031 4.078125 -1.5625 L 2.390625 -1.5625 L 2.390625 -1.9375 Z M 4.546875 -1.9375 "/></g></g></g><g fill="#000000" fill-opacity="1"><g transform="translate(130.717026, 59.498626)"><g><path d="M 0.890625 -2.046875 L 1.84375 -2.046875 C 2.082031 -2.046875 2.28125 -2.128906 2.4375 -2.296875 C 2.59375 -2.460938 2.671875 -2.664062 2.671875 -2.90625 C 2.671875 -3.144531 2.597656 -3.34375 2.453125 -3.5 C 2.296875 -3.65625 2.09375 -3.734375 1.84375 -3.734375 L 0.890625 -3.734375 Z M 3.109375 -2.890625 C 3.109375 -2.535156 2.976562 -2.238281 2.71875 -2 C 2.488281 -1.78125 2.210938 -1.660156 1.890625 -1.640625 L 3.171875 0 L 2.59375 0 L 1.390625 -1.640625 L 0.890625 -1.640625 L 0.890625 0 L 0.453125 0 L 0.453125 -4.140625 L 1.78125 -4.140625 C 2.15625 -4.140625 2.46875 -4.023438 2.71875 -3.796875 C 2.976562 -3.554688 3.109375 -3.253906 3.109375 -2.890625 Z M 3.109375 -2.890625 "/></g></g></g><g fill="#000000" fill-opacity="1"><g transform="translate(135.919761, 59.498626)"><g><path d="M 1.125 -1.515625 L 2.625 -1.515625 L 1.890625 -3.4375 Z M 3.703125 0 L 3.234375 0 L 2.796875 -1.125 L 0.96875 -1.125 L 0.53125 0 L 0.0625 0 L 1.890625 -4.4375 Z M 3.703125 0 "/></g></g></g><g fill="#000000" fill-opacity="1"><g transform="translate(141.56775, 59.498626)"><g><path d="M 0.890625 -2.046875 L 1.84375 -2.046875 C 2.082031 -2.046875 2.28125 -2.128906 2.4375 -2.296875 C 2.59375 -2.460938 2.671875 -2.664062 2.671875 -2.90625 C 2.671875 -3.144531 2.597656 -3.34375 2.453125 -3.5 C 2.296875 -3.65625 2.09375 -3.734375 1.84375 -3.734375 L 0.890625 -3.734375 Z M 3.109375 -2.890625 C 3.109375 -2.535156 2.976562 -2.238281 2.71875 -2 C 2.46875 -1.757812 2.15625 -1.640625 1.78125 -1.640625 L 0.890625 -1.640625 L 0.890625 0 L 0.453125 0 L 0.453125 -4.140625 L 1.78125 -4.140625 C 2.144531 -4.140625 2.457031 -4.023438 2.71875 -3.796875 C 2.976562 -3.554688 3.109375 -3.253906 3.109375 -2.890625 Z M 3.109375 -2.890625 "/></g></g></g><g fill="#000000" fill-opacity="1"><g transform="translate(146.678991, 59.498626)"><g><path d="M 0.890625 0 L 0.453125 0 L 0.453125 -4.140625 L 0.890625 -4.140625 L 0.890625 -2.28125 L 2.765625 -2.28125 L 2.765625 -4.140625 L 3.1875 -4.140625 L 3.1875 0 L 2.765625 0 L 2.765625 -1.859375 L 0.890625 -1.859375 Z M 0.890625 0 "/></g></g></g><g fill="#000000" fill-opacity="1"><g transform="translate(152.217191, 59.498626)"><g><path d="M 2.0625 -1.953125 L 2.0625 0 L 1.640625 0 L 1.640625 -1.953125 L 0.0625 -4.140625 L 0.609375 -4.140625 L 1.84375 -2.375 L 3.078125 -4.140625 L 3.625 -4.140625 Z M 2.0625 -1.953125 "/></g></g></g></svg>