<svg xmlns="http://www.w3.org/2000/svg" xmlns:xlink="http://www.w3.org/1999/xlink" width="1366" zoomAndPan="magnify" viewBox="0 0 1024.5 180.749997" height="241" preserveAspectRatio="xMidYMid meet" version="1.0"><defs><g/><clipPath id="98931d3af5"><path d="M 720 49 L 933 49 L 933 87 L 720 87 Z M 720 49 " clip-rule="nonzero"/></clipPath><clipPath id="66f8c0e9c9"><path d="M 673.742188 18.074219 L 946.839844 -49.734375 L 988.460938 117.882812 L 715.359375 185.691406 Z M 673.742188 18.074219 " clip-rule="nonzero"/></clipPath><clipPath id="7eaf784d74"><path d="M 946.875 -49.742188 L 673.777344 18.066406 L 715.394531 185.683594 L 988.492188 117.875 Z M 946.875 -49.742188 " clip-rule="nonzero"/></clipPath><clipPath id="9973366c8d"><path d="M 946.875 -49.742188 L 673.777344 18.066406 L 715.394531 185.683594 L 988.492188 117.875 Z M 946.875 -49.742188 " clip-rule="nonzero"/></clipPath><clipPath id="9aa927851d"><path d="M 91 62 L 304 62 L 304 100 L 91 100 Z M 91 62 " clip-rule="nonzero"/></clipPath><clipPath id="a597febf5c"><path d="M 35.570312 31.535156 L 308.667969 -36.273438 L 350.289062 131.34375 L 77.1875 199.152344 Z M 35.570312 31.535156 " clip-rule="nonzero"/></clipPath><clipPath id="9138e36007"><path d="M 77.125 198.894531 L 350.222656 131.085938 L 308.605469 -36.53125 L 35.503906 31.277344 Z M 77.125 198.894531 " clip-rule="nonzero"/></clipPath><clipPath id="9ee84e0394"><path d="M 77.125 198.894531 L 350.222656 131.085938 L 308.605469 -36.53125 L 35.503906 31.277344 Z M 77.125 198.894531 " clip-rule="nonzero"/></clipPath></defs><g clip-path="url(#98931d3af5)"><g clip-path="url(#66f8c0e9c9)"><g clip-path="url(#7eaf784d74)"><g clip-path="url(#9973366c8d)"><path fill="#000000" d="M 721.730469 75.371094 C 721.140625 75.398438 720.621094 75.945312 720.664062 76.59375 C 720.691406 77.183594 721.238281 77.707031 721.882812 77.667969 C 730.78125 77.191406 746.347656 78.828125 765.234375 80.835938 C 824.949219 87.175781 916.925781 96.984375 932.621094 52.726562 C 932.664062 52.65625 932.648438 52.601562 932.636719 52.542969 C 932.832031 52.136719 932.847656 51.714844 932.734375 51.261719 C 932.457031 50.136719 931.332031 49.460938 930.207031 49.738281 C 929.082031 50.019531 928.40625 51.140625 928.6875 52.269531 C 928.828125 52.832031 929.25 53.324219 929.667969 53.578125 C 912.769531 94.191406 823.546875 84.652344 765.25 78.5 C 746.296875 76.449219 730.542969 74.796875 721.59375 75.289062 L 721.648438 75.273438 Z M 721.730469 75.371094 " fill-opacity="1" fill-rule="nonzero"/></g></g></g></g><g clip-path="url(#9aa927851d)"><g clip-path="url(#a597febf5c)"><g clip-path="url(#9138e36007)"><g clip-path="url(#9ee84e0394)"><path fill="#000000" d="M 302.265625 73.777344 C 302.855469 73.75 303.378906 73.203125 303.335938 72.554688 C 303.308594 71.964844 302.761719 71.441406 302.113281 71.484375 C 293.21875 71.957031 277.652344 70.324219 258.765625 68.316406 C 199.050781 61.976562 107.070312 52.164062 91.378906 96.421875 C 91.335938 96.492188 91.347656 96.550781 91.363281 96.605469 C 91.167969 97.015625 91.152344 97.4375 91.261719 97.886719 C 91.542969 99.011719 92.667969 99.691406 93.792969 99.410156 C 94.914062 99.132812 95.589844 98.007812 95.3125 96.882812 C 95.171875 96.320312 94.75 95.824219 94.328125 95.570312 C 111.226562 54.960938 200.453125 64.496094 258.75 70.652344 C 277.703125 72.703125 293.457031 74.351562 302.40625 73.863281 L 302.351562 73.878906 Z M 302.265625 73.777344 " fill-opacity="1" fill-rule="nonzero"/></g></g></g></g><path stroke-linecap="butt" transform="matrix(0, 0.744423, -0.744423, 0, 218.882844, 9.258433)" fill="none" stroke-linejoin="miter" d="M -0.00083415 2.497783 L 212.091955 2.497783 " stroke="#000000" stroke-width="5" stroke-opacity="1" stroke-miterlimit="4"/><path stroke-linecap="butt" transform="matrix(0.744423, 0, 0, 0.744423, 215.711464, 9.550109)" fill="none" stroke-linejoin="miter" d="M -0.000707693 2.498644 L 789.07535 2.498644 " stroke="#000000" stroke-width="5" stroke-opacity="1" stroke-miterlimit="4"/><path stroke-linecap="butt" transform="matrix(0.744423, 0, 0, 0.744423, 215.711464, 163.120433)" fill="none" stroke-linejoin="miter" d="M -0.000707693 2.498628 L 204.646086 2.498628 " stroke="#000000" stroke-width="5" stroke-opacity="1" stroke-miterlimit="4"/><path stroke-linecap="butt" transform="matrix(0, 0.744423, -0.744423, 0, 802.813283, 11.416517)" fill="none" stroke-linejoin="miter" d="M 0.00195029 2.498793 L 212.094739 2.498793 " stroke="#000000" stroke-width="5" stroke-opacity="1" stroke-miterlimit="4"/><path stroke-linecap="butt" transform="matrix(0.744423, 0, 0, 0.744423, 648.606093, 165.278519)" fill="none" stroke-linejoin="miter" d="M -0.000838232 2.50141 L 204.65645 2.50141 " stroke="#000000" stroke-width="5" stroke-opacity="1" stroke-miterlimit="4"/><g fill="#000000" fill-opacity="1"><g transform="translate(294.333732, 91.314185)"><g><path d="M 74.28125 -66.9375 C 74.65625 -66.9375 74.96875 -66.804688 75.21875 -66.546875 C 75.476562 -66.296875 75.609375 -65.984375 75.609375 -65.609375 C 75.609375 -65.242188 75.476562 -64.929688 75.21875 -64.671875 C 74.96875 -64.421875 74.65625 -64.296875 74.28125 -64.296875 C 70.71875 -64.253906 66.644531 -63.960938 62.0625 -63.421875 C 57.488281 -62.890625 52.765625 -62.195312 47.890625 -61.34375 C 43.015625 -60.488281 38.3125 -59.484375 33.78125 -58.328125 C 33.082031 -55.421875 32.28125 -52.21875 31.375 -48.71875 C 30.476562 -45.226562 29.519531 -41.585938 28.5 -37.796875 C 27.8125 -35.023438 27.070312 -32.144531 26.28125 -29.15625 C 25.5 -26.175781 24.738281 -23.1875 24 -20.1875 C 27.1875 -21.019531 30.398438 -21.816406 33.640625 -22.578125 C 36.878906 -23.335938 39.921875 -24.003906 42.765625 -24.578125 C 45.609375 -25.160156 48.054688 -25.601562 50.109375 -25.90625 C 52.171875 -26.207031 53.617188 -26.332031 54.453125 -26.28125 C 54.816406 -26.238281 55.113281 -26.085938 55.34375 -25.828125 C 55.582031 -25.578125 55.703125 -25.269531 55.703125 -24.90625 C 55.648438 -24.53125 55.492188 -24.210938 55.234375 -23.953125 C 54.984375 -23.703125 54.675781 -23.578125 54.3125 -23.578125 C 53.382812 -23.671875 51.625 -23.5 49.03125 -23.0625 C 46.445312 -22.625 43.347656 -22.019531 39.734375 -21.25 C 36.128906 -20.488281 32.316406 -19.601562 28.296875 -18.59375 C 26.535156 -18.125 24.847656 -17.679688 23.234375 -17.265625 C 22.035156 -12.367188 20.925781 -7.617188 19.90625 -3.015625 C 18.882812 1.585938 18.050781 5.84375 17.40625 9.75 C 16.757812 13.65625 16.414062 16.945312 16.375 19.625 C 16.375 20.738281 16.476562 21.859375 16.6875 22.984375 C 16.894531 24.117188 17.367188 24.847656 18.109375 25.171875 C 18.984375 25.546875 20.148438 25.410156 21.609375 24.765625 C 23.066406 24.117188 24.695312 23.125 26.5 21.78125 C 28.300781 20.4375 30.148438 18.929688 32.046875 17.265625 C 33.941406 15.609375 35.78125 13.921875 37.5625 12.203125 C 39.34375 10.492188 40.925781 8.96875 42.3125 7.625 C 42.675781 7.257812 43.039062 6.898438 43.40625 6.546875 C 43.78125 6.203125 44.128906 5.847656 44.453125 5.484375 L 45.640625 4.375 C 46.328125 3.726562 46.992188 3.09375 47.640625 2.46875 C 48.296875 1.84375 48.878906 1.296875 49.390625 0.828125 C 50.078125 0.179688 50.722656 -0.332031 51.328125 -0.71875 C 51.929688 -1.113281 52.484375 -1.0625 52.984375 -0.5625 C 53.585938 -0.0507812 53.65625 0.617188 53.1875 1.453125 C 52.726562 2.285156 51.832031 3.601562 50.5 5.40625 C 50.257812 5.726562 49.953125 5.910156 49.578125 5.953125 C 49.210938 6.003906 48.894531 5.914062 48.625 5.6875 C 48.53125 5.644531 48.4375 5.578125 48.34375 5.484375 C 48.207031 5.617188 48.066406 5.753906 47.921875 5.890625 C 47.785156 6.035156 47.648438 6.175781 47.515625 6.3125 L 46.328125 7.421875 C 46.003906 7.742188 45.65625 8.085938 45.28125 8.453125 C 44.914062 8.828125 44.550781 9.175781 44.1875 9.5 C 40.71875 12.875 37.429688 15.957031 34.328125 18.75 C 31.234375 21.550781 28.378906 23.796875 25.765625 25.484375 C 23.148438 27.171875 20.894531 28.015625 19 28.015625 C 18.257812 28.015625 17.613281 27.878906 17.0625 27.609375 C 14.75 26.640625 13.640625 23.976562 13.734375 19.625 C 13.773438 16.894531 14.097656 13.644531 14.703125 9.875 C 15.304688 6.113281 16.09375 1.992188 17.0625 -2.484375 C 18.03125 -6.972656 19.09375 -11.625 20.25 -16.4375 C 15.488281 -15.09375 11.789062 -13.921875 9.15625 -12.921875 C 6.519531 -11.929688 4.945312 -11.207031 4.4375 -10.75 C 4.207031 -10.519531 3.90625 -10.40625 3.53125 -10.40625 C 3.164062 -10.40625 2.84375 -10.539062 2.5625 -10.8125 C 2.332031 -11.050781 2.21875 -11.351562 2.21875 -11.71875 C 2.21875 -12.09375 2.359375 -12.414062 2.640625 -12.6875 C 3.191406 -13.25 4.359375 -13.898438 6.140625 -14.640625 C 7.921875 -15.378906 10.101562 -16.148438 12.6875 -16.953125 C 15.28125 -17.765625 18.054688 -18.585938 21.015625 -19.421875 C 21.796875 -22.609375 22.613281 -25.804688 23.46875 -29.015625 C 24.332031 -32.234375 25.15625 -35.394531 25.9375 -38.5 C 26.863281 -41.96875 27.742188 -45.316406 28.578125 -48.546875 C 29.410156 -51.785156 30.171875 -54.789062 30.859375 -57.5625 C 26.796875 -56.457031 23.085938 -55.289062 19.734375 -54.0625 C 16.378906 -52.84375 13.640625 -51.582031 11.515625 -50.28125 C 9.390625 -48.988281 8.140625 -47.695312 7.765625 -46.40625 C 7.671875 -46.21875 7.671875 -45.800781 7.765625 -45.15625 C 7.859375 -44.507812 8.625 -43.695312 10.0625 -42.71875 C 10.332031 -42.488281 10.503906 -42.203125 10.578125 -41.859375 C 10.648438 -41.515625 10.59375 -41.179688 10.40625 -40.859375 C 10.125 -40.484375 9.753906 -40.296875 9.296875 -40.296875 C 9.015625 -40.296875 8.757812 -40.363281 8.53125 -40.5 C 6.675781 -41.75 5.597656 -42.960938 5.296875 -44.140625 C 5.003906 -45.328125 4.972656 -46.335938 5.203125 -47.171875 C 5.660156 -48.648438 6.734375 -50.035156 8.421875 -51.328125 C 10.109375 -52.617188 12.210938 -53.816406 14.734375 -54.921875 C 17.253906 -56.035156 19.972656 -57.066406 22.890625 -58.015625 C 25.804688 -58.960938 28.695312 -59.804688 31.5625 -60.546875 C 31.832031 -61.703125 32.0625 -62.695312 32.25 -63.53125 C 32.300781 -63.90625 32.488281 -64.179688 32.8125 -64.359375 C 33.132812 -64.546875 33.457031 -64.617188 33.78125 -64.578125 C 34.144531 -64.484375 34.429688 -64.285156 34.640625 -63.984375 C 34.847656 -63.679688 34.90625 -63.347656 34.8125 -62.984375 C 34.71875 -62.515625 34.601562 -61.9375 34.46875 -61.25 C 38.957031 -62.351562 43.617188 -63.320312 48.453125 -64.15625 C 53.285156 -64.988281 57.929688 -65.644531 62.390625 -66.125 C 66.847656 -66.613281 70.8125 -66.882812 74.28125 -66.9375 Z M 74.28125 -66.9375 "/></g></g></g><g fill="#000000" fill-opacity="1"><g transform="translate(353.124243, 91.314185)"><g><path d="M 39.125 -15.53125 C 39.394531 -15.300781 39.539062 -15 39.5625 -14.625 C 39.59375 -14.257812 39.488281 -13.9375 39.25 -13.65625 C 33.382812 -6.769531 28.738281 -3.972656 25.3125 -5.265625 C 22.863281 -6.191406 21.546875 -9.128906 21.359375 -14.078125 C 20.847656 -13.148438 20.300781 -12.097656 19.71875 -10.921875 C 19.144531 -9.742188 18.675781 -8.785156 18.3125 -8.046875 C 18.03125 -7.347656 17.75 -6.722656 17.46875 -6.171875 C 17.195312 -5.617188 16.945312 -5.15625 16.71875 -4.78125 C 16.570312 -4.507812 16.328125 -4.109375 15.984375 -3.578125 C 15.640625 -3.046875 15.203125 -2.582031 14.671875 -2.1875 C 14.140625 -1.789062 13.523438 -1.6875 12.828125 -1.875 C 11.992188 -2.101562 11.367188 -2.710938 10.953125 -3.703125 C 10.535156 -4.703125 10.28125 -5.789062 10.1875 -6.96875 C 10.101562 -8.144531 10.0625 -9.101562 10.0625 -9.84375 C 10.0625 -10.445312 10.0625 -11.023438 10.0625 -11.578125 C 10.0625 -12.140625 10.082031 -12.648438 10.125 -13.109375 C 8.507812 -10.796875 6.960938 -8.398438 5.484375 -5.921875 C 4.003906 -3.453125 2.429688 -0.625 0.765625 2.5625 C 0.210938 3.625 -0.390625 4.15625 -1.046875 4.15625 C -1.273438 4.15625 -1.484375 4.085938 -1.671875 3.953125 C -1.898438 3.859375 -2.101562 3.707031 -2.28125 3.5 C -2.46875 3.289062 -2.570312 2.875 -2.59375 2.25 C -2.625 1.625 -2.535156 0.664062 -2.328125 -0.625 C -2.117188 -1.914062 -1.710938 -3.71875 -1.109375 -6.03125 C -0.410156 -8.851562 0.410156 -11.648438 1.359375 -14.421875 C 2.304688 -17.203125 3.265625 -19.703125 4.234375 -21.921875 C 4.367188 -22.285156 4.609375 -22.535156 4.953125 -22.671875 C 5.304688 -22.816406 5.644531 -22.796875 5.96875 -22.609375 C 6.332031 -22.472656 6.570312 -22.226562 6.6875 -21.875 C 6.800781 -21.53125 6.789062 -21.195312 6.65625 -20.875 C 5.40625 -17.957031 4.28125 -14.914062 3.28125 -11.75 C 2.289062 -8.582031 1.519531 -5.820312 0.96875 -3.46875 C 2.40625 -6.007812 3.816406 -8.378906 5.203125 -10.578125 C 6.585938 -12.773438 8.046875 -14.914062 9.578125 -17 C 9.710938 -17.175781 9.953125 -17.425781 10.296875 -17.75 C 10.640625 -18.070312 11.113281 -18.144531 11.71875 -17.96875 C 12.320312 -17.738281 12.65625 -17.296875 12.71875 -16.640625 C 12.789062 -15.992188 12.804688 -14.910156 12.765625 -13.390625 C 12.765625 -12.878906 12.75 -12.320312 12.71875 -11.71875 C 12.695312 -11.113281 12.6875 -10.488281 12.6875 -9.84375 C 12.6875 -8.457031 12.78125 -7.320312 12.96875 -6.4375 C 13.15625 -5.5625 13.316406 -4.960938 13.453125 -4.640625 C 13.546875 -4.734375 13.671875 -4.894531 13.828125 -5.125 C 13.992188 -5.363281 14.191406 -5.664062 14.421875 -6.03125 C 14.609375 -6.351562 14.828125 -6.789062 15.078125 -7.34375 C 15.335938 -7.90625 15.628906 -8.507812 15.953125 -9.15625 C 17.148438 -11.75 18.128906 -13.738281 18.890625 -15.125 C 19.660156 -16.507812 20.320312 -17.457031 20.875 -17.96875 C 21.425781 -18.476562 22.003906 -18.660156 22.609375 -18.515625 C 23.347656 -18.328125 23.773438 -17.875 23.890625 -17.15625 C 24.003906 -16.445312 24.0625 -15.882812 24.0625 -15.46875 C 24.019531 -13.289062 24.191406 -11.53125 24.578125 -10.1875 C 24.972656 -8.851562 25.539062 -8.046875 26.28125 -7.765625 C 27.113281 -7.441406 28.441406 -7.8125 30.265625 -8.875 C 32.097656 -9.9375 34.425781 -12.109375 37.25 -15.390625 C 37.476562 -15.671875 37.773438 -15.820312 38.140625 -15.84375 C 38.515625 -15.875 38.84375 -15.769531 39.125 -15.53125 Z M 39.125 -15.53125 "/></g></g></g><g fill="#000000" fill-opacity="1"><g transform="translate(389.244343, 91.314185)"><g><path d="M 39.125 -15.53125 C 39.394531 -15.300781 39.539062 -15 39.5625 -14.625 C 39.59375 -14.257812 39.488281 -13.9375 39.25 -13.65625 C 33.382812 -6.769531 28.738281 -3.972656 25.3125 -5.265625 C 22.863281 -6.191406 21.546875 -9.128906 21.359375 -14.078125 C 20.847656 -13.148438 20.300781 -12.097656 19.71875 -10.921875 C 19.144531 -9.742188 18.675781 -8.785156 18.3125 -8.046875 C 18.03125 -7.347656 17.75 -6.722656 17.46875 -6.171875 C 17.195312 -5.617188 16.945312 -5.15625 16.71875 -4.78125 C 16.570312 -4.507812 16.328125 -4.109375 15.984375 -3.578125 C 15.640625 -3.046875 15.203125 -2.582031 14.671875 -2.1875 C 14.140625 -1.789062 13.523438 -1.6875 12.828125 -1.875 C 11.992188 -2.101562 11.367188 -2.710938 10.953125 -3.703125 C 10.535156 -4.703125 10.28125 -5.789062 10.1875 -6.96875 C 10.101562 -8.144531 10.0625 -9.101562 10.0625 -9.84375 C 10.0625 -10.445312 10.0625 -11.023438 10.0625 -11.578125 C 10.0625 -12.140625 10.082031 -12.648438 10.125 -13.109375 C 8.507812 -10.796875 6.960938 -8.398438 5.484375 -5.921875 C 4.003906 -3.453125 2.429688 -0.625 0.765625 2.5625 C 0.210938 3.625 -0.390625 4.15625 -1.046875 4.15625 C -1.273438 4.15625 -1.484375 4.085938 -1.671875 3.953125 C -1.898438 3.859375 -2.101562 3.707031 -2.28125 3.5 C -2.46875 3.289062 -2.570312 2.875 -2.59375 2.25 C -2.625 1.625 -2.535156 0.664062 -2.328125 -0.625 C -2.117188 -1.914062 -1.710938 -3.71875 -1.109375 -6.03125 C -0.410156 -8.851562 0.410156 -11.648438 1.359375 -14.421875 C 2.304688 -17.203125 3.265625 -19.703125 4.234375 -21.921875 C 4.367188 -22.285156 4.609375 -22.535156 4.953125 -22.671875 C 5.304688 -22.816406 5.644531 -22.796875 5.96875 -22.609375 C 6.332031 -22.472656 6.570312 -22.226562 6.6875 -21.875 C 6.800781 -21.53125 6.789062 -21.195312 6.65625 -20.875 C 5.40625 -17.957031 4.28125 -14.914062 3.28125 -11.75 C 2.289062 -8.582031 1.519531 -5.820312 0.96875 -3.46875 C 2.40625 -6.007812 3.816406 -8.378906 5.203125 -10.578125 C 6.585938 -12.773438 8.046875 -14.914062 9.578125 -17 C 9.710938 -17.175781 9.953125 -17.425781 10.296875 -17.75 C 10.640625 -18.070312 11.113281 -18.144531 11.71875 -17.96875 C 12.320312 -17.738281 12.65625 -17.296875 12.71875 -16.640625 C 12.789062 -15.992188 12.804688 -14.910156 12.765625 -13.390625 C 12.765625 -12.878906 12.75 -12.320312 12.71875 -11.71875 C 12.695312 -11.113281 12.6875 -10.488281 12.6875 -9.84375 C 12.6875 -8.457031 12.78125 -7.320312 12.96875 -6.4375 C 13.15625 -5.5625 13.316406 -4.960938 13.453125 -4.640625 C 13.546875 -4.734375 13.671875 -4.894531 13.828125 -5.125 C 13.992188 -5.363281 14.191406 -5.664062 14.421875 -6.03125 C 14.609375 -6.351562 14.828125 -6.789062 15.078125 -7.34375 C 15.335938 -7.90625 15.628906 -8.507812 15.953125 -9.15625 C 17.148438 -11.75 18.128906 -13.738281 18.890625 -15.125 C 19.660156 -16.507812 20.320312 -17.457031 20.875 -17.96875 C 21.425781 -18.476562 22.003906 -18.660156 22.609375 -18.515625 C 23.347656 -18.328125 23.773438 -17.875 23.890625 -17.15625 C 24.003906 -16.445312 24.0625 -15.882812 24.0625 -15.46875 C 24.019531 -13.289062 24.191406 -11.53125 24.578125 -10.1875 C 24.972656 -8.851562 25.539062 -8.046875 26.28125 -7.765625 C 27.113281 -7.441406 28.441406 -7.8125 30.265625 -8.875 C 32.097656 -9.9375 34.425781 -12.109375 37.25 -15.390625 C 37.476562 -15.671875 37.773438 -15.820312 38.140625 -15.84375 C 38.515625 -15.875 38.84375 -15.769531 39.125 -15.53125 Z M 39.125 -15.53125 "/></g></g></g><g fill="#000000" fill-opacity="1"><g transform="translate(425.364443, 91.314185)"><g><path d="M 29.0625 -15.390625 C 29.382812 -15.253906 29.601562 -15.015625 29.71875 -14.671875 C 29.832031 -14.328125 29.820312 -13.988281 29.6875 -13.65625 C 28.8125 -11.851562 27.851562 -10.050781 26.8125 -8.25 C 25.769531 -6.445312 24.679688 -4.796875 23.546875 -3.296875 C 22.410156 -1.796875 21.238281 -0.59375 20.03125 0.3125 C 18.832031 1.21875 17.632812 1.671875 16.4375 1.671875 C 16.207031 1.671875 15.953125 1.644531 15.671875 1.59375 C 12.578125 0.988281 10.660156 -3.171875 9.921875 -10.890625 C 9.128906 -9.828125 8.210938 -8.632812 7.171875 -7.3125 C 6.140625 -6 5.046875 -4.695312 3.890625 -3.40625 C 3.703125 -3.21875 3.398438 -2.925781 2.984375 -2.53125 C 2.566406 -2.132812 2.078125 -1.820312 1.515625 -1.59375 C 0.960938 -1.363281 0.410156 -1.390625 -0.140625 -1.671875 C -1.242188 -2.078125 -1.773438 -3.273438 -1.734375 -5.265625 C -1.734375 -6.421875 -1.515625 -7.851562 -1.078125 -9.5625 C -0.640625 -11.28125 -0.015625 -13.003906 0.796875 -14.734375 C 1.609375 -16.472656 2.554688 -18.007812 3.640625 -19.34375 C 4.722656 -20.6875 5.9375 -21.59375 7.28125 -22.0625 C 8.113281 -22.382812 9.128906 -22.441406 10.328125 -22.234375 C 11.535156 -22.023438 12.785156 -21.15625 14.078125 -19.625 C 14.304688 -19.351562 14.410156 -19.03125 14.390625 -18.65625 C 14.367188 -18.289062 14.21875 -17.988281 13.9375 -17.75 C 13.664062 -17.519531 13.34375 -17.414062 12.96875 -17.4375 C 12.601562 -17.46875 12.300781 -17.617188 12.0625 -17.890625 C 10.957031 -19.191406 10 -19.804688 9.1875 -19.734375 C 8.375 -19.660156 7.691406 -19.414062 7.140625 -19 C 6.128906 -18.257812 5.207031 -17.195312 4.375 -15.8125 C 3.539062 -14.425781 2.84375 -12.96875 2.28125 -11.4375 C 1.726562 -9.914062 1.335938 -8.492188 1.109375 -7.171875 C 0.878906 -5.859375 0.8125 -4.898438 0.90625 -4.296875 C 1.039062 -4.390625 1.1875 -4.503906 1.34375 -4.640625 C 1.507812 -4.785156 1.6875 -4.972656 1.875 -5.203125 C 3.257812 -6.722656 4.53125 -8.234375 5.6875 -9.734375 C 6.84375 -11.242188 7.835938 -12.578125 8.671875 -13.734375 C 8.898438 -14.054688 9.117188 -14.367188 9.328125 -14.671875 C 9.535156 -14.972656 9.734375 -15.238281 9.921875 -15.46875 C 10.285156 -15.925781 10.769531 -16.066406 11.375 -15.890625 C 11.976562 -15.742188 12.300781 -15.347656 12.34375 -14.703125 C 12.476562 -11.703125 12.71875 -9.285156 13.0625 -7.453125 C 13.414062 -5.628906 13.800781 -4.265625 14.21875 -3.359375 C 14.632812 -2.460938 15.023438 -1.851562 15.390625 -1.53125 C 15.765625 -1.207031 16.046875 -1.046875 16.234375 -1.046875 C 17.109375 -0.859375 18.515625 -1.757812 20.453125 -3.75 C 22.398438 -5.738281 24.671875 -9.414062 27.265625 -14.78125 C 27.441406 -15.144531 27.703125 -15.382812 28.046875 -15.5 C 28.398438 -15.613281 28.738281 -15.578125 29.0625 -15.390625 Z M 29.0625 -15.390625 "/></g></g></g><g fill="#000000" fill-opacity="1"><g transform="translate(451.154617, 91.314185)"><g/></g></g><g fill="#000000" fill-opacity="1"><g transform="translate(472.438455, 91.314185)"><g><path d="M 62.984375 -67.421875 C 64.085938 -66.679688 65.132812 -65.648438 66.125 -64.328125 C 67.125 -63.015625 67.878906 -61.363281 68.390625 -59.375 C 68.898438 -57.382812 69.023438 -54.96875 68.765625 -52.125 C 68.515625 -49.28125 67.71875 -45.9375 66.375 -42.09375 C 64.289062 -36.320312 61.816406 -31.078125 58.953125 -26.359375 C 56.085938 -21.640625 52.921875 -17.640625 49.453125 -14.359375 C 46.628906 -11.671875 43.726562 -9.585938 40.75 -8.109375 C 37.769531 -6.628906 34.9375 -5.890625 32.25 -5.890625 C 31.96875 -5.890625 31.691406 -5.914062 31.421875 -5.96875 C 27.210938 -6.238281 24.226562 -8.226562 22.46875 -11.9375 C 21.363281 -7.164062 20.265625 -2.484375 19.171875 2.109375 C 18.085938 6.710938 17.082031 11.070312 16.15625 15.1875 C 15.238281 19.300781 14.453125 22.988281 13.796875 26.25 C 13.148438 29.507812 12.691406 32.15625 12.421875 34.1875 C 12.503906 34.007812 12.59375 33.800781 12.6875 33.5625 C 12.832031 33.238281 13.078125 33.007812 13.421875 32.875 C 13.765625 32.738281 14.097656 32.738281 14.421875 32.875 C 14.742188 33.0625 14.972656 33.328125 15.109375 33.671875 C 15.253906 34.015625 15.257812 34.347656 15.125 34.671875 C 14.289062 36.484375 13.59375 37.816406 13.03125 38.671875 C 12.476562 39.523438 11.878906 39.953125 11.234375 39.953125 C 11.046875 39.953125 10.863281 39.90625 10.6875 39.8125 C 10.21875 39.675781 9.878906 39.351562 9.671875 38.84375 C 9.460938 38.332031 9.40625 37.460938 9.5 36.234375 C 9.59375 35.015625 9.847656 33.25 10.265625 30.9375 C 10.960938 26.726562 12.1875 20.691406 13.9375 12.828125 C 15.050781 7.972656 16.265625 2.773438 17.578125 -2.765625 C 18.898438 -8.316406 20.253906 -13.972656 21.640625 -19.734375 C 23.023438 -25.492188 24.390625 -31.097656 25.734375 -36.546875 C 27.023438 -41.816406 28.222656 -46.753906 29.328125 -51.359375 C 30.441406 -55.960938 31.414062 -60 32.25 -63.46875 C 29.25 -62.164062 26.335938 -60.660156 23.515625 -58.953125 C 20.691406 -57.242188 18.171875 -55.414062 15.953125 -53.46875 C 12.898438 -50.789062 10.644531 -48.285156 9.1875 -45.953125 C 7.726562 -43.617188 6.8125 -41.441406 6.4375 -39.421875 C 6.070312 -37.410156 6.039062 -35.628906 6.34375 -34.078125 C 6.644531 -32.535156 7.050781 -31.253906 7.5625 -30.234375 C 7.75 -29.910156 7.78125 -29.578125 7.65625 -29.234375 C 7.539062 -28.890625 7.320312 -28.625 7 -28.4375 C 6.675781 -28.300781 6.34375 -28.289062 6 -28.40625 C 5.65625 -28.519531 5.390625 -28.738281 5.203125 -29.0625 C 3.171875 -33.132812 2.925781 -37.476562 4.46875 -42.09375 C 6.019531 -46.71875 9.25 -51.179688 14.15625 -55.484375 C 16.789062 -57.753906 19.710938 -59.847656 22.921875 -61.765625 C 26.140625 -63.679688 29.503906 -65.3125 33.015625 -66.65625 C 33.203125 -67.582031 33.382812 -68.414062 33.5625 -69.15625 C 33.613281 -69.476562 33.800781 -69.742188 34.125 -69.953125 C 34.445312 -70.160156 34.796875 -70.21875 35.171875 -70.125 C 35.492188 -70.070312 35.757812 -69.882812 35.96875 -69.5625 C 36.175781 -69.238281 36.234375 -68.894531 36.140625 -68.53125 C 36.140625 -68.382812 36.113281 -68.242188 36.0625 -68.109375 C 36.019531 -67.972656 36 -67.859375 36 -67.765625 C 37.15625 -68.128906 38.3125 -68.472656 39.46875 -68.796875 C 44.414062 -70.140625 48.910156 -70.695312 52.953125 -70.46875 C 57.003906 -70.238281 60.347656 -69.222656 62.984375 -67.421875 Z M 63.8125 -43 C 64.5 -44.894531 65.070312 -46.894531 65.53125 -49 C 66 -51.101562 66.234375 -53.171875 66.234375 -55.203125 C 66.234375 -57.242188 65.863281 -59.128906 65.125 -60.859375 C 64.382812 -62.597656 63.160156 -64.066406 61.453125 -65.265625 C 59.179688 -66.796875 56.1875 -67.640625 52.46875 -67.796875 C 48.75 -67.960938 44.644531 -67.441406 40.15625 -66.234375 C 38.539062 -65.773438 36.898438 -65.242188 35.234375 -64.640625 C 34.453125 -61.078125 33.457031 -56.832031 32.25 -51.90625 C 31.050781 -46.988281 29.757812 -41.660156 28.375 -35.921875 C 27.582031 -32.867188 26.78125 -29.691406 25.96875 -26.390625 C 25.164062 -23.085938 24.347656 -19.703125 23.515625 -16.234375 C 23.835938 -16.046875 24.046875 -15.765625 24.140625 -15.390625 C 25.066406 -11.140625 27.539062 -8.875 31.5625 -8.59375 C 33.914062 -8.457031 36.503906 -9.0625 39.328125 -10.40625 C 42.148438 -11.75 44.925781 -13.710938 47.65625 -16.296875 C 49.175781 -17.734375 50.875 -19.640625 52.75 -22.015625 C 54.625 -24.398438 56.519531 -27.3125 58.4375 -30.75 C 60.351562 -34.195312 62.144531 -38.28125 63.8125 -43 Z M 63.8125 -43 "/></g></g></g><g fill="#000000" fill-opacity="1"><g transform="translate(533.58611, 91.314185)"><g><path d="M 23.4375 -15.46875 C 23.757812 -15.28125 23.941406 -15 23.984375 -14.625 C 24.035156 -14.257812 23.972656 -13.9375 23.796875 -13.65625 C 21.066406 -9.863281 18.566406 -6.734375 16.296875 -4.265625 C 14.035156 -1.796875 11.769531 0.25 9.5 1.875 C 7.789062 3.070312 6.101562 3.671875 4.4375 3.671875 C 3.144531 3.671875 2.015625 3.328125 1.046875 2.640625 C 0.390625 2.171875 -0.242188 1.347656 -0.859375 0.171875 C -1.484375 -1.003906 -1.816406 -2.710938 -1.859375 -4.953125 C -1.910156 -7.203125 -1.359375 -10.148438 -0.203125 -13.796875 C -0.203125 -13.796875 -0.203125 -13.820312 -0.203125 -13.875 C 1.179688 -18.3125 2.804688 -21.695312 4.671875 -24.03125 C 6.546875 -26.363281 8.15625 -27.554688 9.5 -27.609375 C 10.5625 -27.648438 11.253906 -27.1875 11.578125 -26.21875 C 12.085938 -24.875 11.488281 -22.960938 9.78125 -20.484375 C 8.070312 -18.015625 5.550781 -15.394531 2.21875 -12.625 C 1.195312 -9.382812 0.707031 -6.847656 0.75 -5.015625 C 0.800781 -3.191406 1.054688 -1.875 1.515625 -1.0625 C 1.984375 -0.257812 2.359375 0.253906 2.640625 0.484375 C 4.023438 1.503906 5.800781 1.226562 7.96875 -0.34375 C 10.101562 -1.820312 12.253906 -3.75 14.421875 -6.125 C 16.597656 -8.507812 18.984375 -11.53125 21.578125 -15.1875 C 21.804688 -15.46875 22.101562 -15.640625 22.46875 -15.703125 C 22.84375 -15.773438 23.164062 -15.695312 23.4375 -15.46875 Z M 9.015625 -24.6875 C 8.503906 -24.363281 7.8125 -23.679688 6.9375 -22.640625 C 6.0625 -21.597656 5.160156 -20.085938 4.234375 -18.109375 C 5.898438 -19.722656 7.078125 -21.09375 7.765625 -22.21875 C 8.460938 -23.351562 8.878906 -24.175781 9.015625 -24.6875 Z M 9.015625 -24.6875 "/></g></g></g><g fill="#000000" fill-opacity="1"><g transform="translate(553.760677, 91.314185)"><g><path d="M 58.546875 -40.921875 C 58.773438 -40.640625 58.863281 -40.3125 58.8125 -39.9375 C 58.769531 -39.570312 58.585938 -39.273438 58.265625 -39.046875 C 57.703125 -38.679688 57.171875 -38.707031 56.671875 -39.125 C 56.066406 -39.351562 54.6875 -39.515625 52.53125 -39.609375 C 50.382812 -39.703125 47.691406 -39.757812 44.453125 -39.78125 C 41.222656 -39.800781 37.664062 -39.785156 33.78125 -39.734375 C 29.894531 -39.691406 25.90625 -39.632812 21.8125 -39.5625 C 17.71875 -39.5 13.753906 -39.421875 9.921875 -39.328125 C 8.484375 -33.316406 6.976562 -26.785156 5.40625 -19.734375 C 3.832031 -12.679688 2.285156 -5.523438 0.765625 1.734375 C -1.222656 11.253906 -2.757812 19.066406 -3.84375 25.171875 C -4.9375 31.273438 -5.644531 35.691406 -5.96875 38.421875 C -5.875 38.421875 -5.78125 38.445312 -5.6875 38.5 C -5.3125 38.59375 -5.054688 38.8125 -4.921875 39.15625 C -4.785156 39.5 -4.785156 39.832031 -4.921875 40.15625 C -5.203125 40.945312 -5.515625 41.675781 -5.859375 42.34375 C -6.203125 43.007812 -6.675781 43.34375 -7.28125 43.34375 C -7.414062 43.34375 -7.578125 43.320312 -7.765625 43.28125 C -8.410156 43.050781 -8.769531 42.550781 -8.84375 41.78125 C -8.914062 41.019531 -8.859375 39.972656 -8.671875 38.640625 C -8.484375 36.691406 -8.066406 33.890625 -7.421875 30.234375 C -6.867188 26.816406 -6.148438 22.816406 -5.265625 18.234375 C -4.390625 13.660156 -3.375 8.644531 -2.21875 3.1875 C -0.695312 -4.207031 0.867188 -11.554688 2.484375 -18.859375 C 4.109375 -26.171875 5.660156 -32.96875 7.140625 -39.25 C 4.921875 -39.207031 2.816406 -39.160156 0.828125 -39.109375 C -1.160156 -39.066406 -2.960938 -39.023438 -4.578125 -38.984375 C -7.671875 -38.890625 -10.375 -38.816406 -12.6875 -38.765625 C -15 -38.722656 -16.644531 -38.703125 -17.625 -38.703125 C -17.988281 -38.703125 -18.296875 -38.828125 -18.546875 -39.078125 C -18.804688 -39.335938 -18.9375 -39.648438 -18.9375 -40.015625 C -18.9375 -40.390625 -18.804688 -40.703125 -18.546875 -40.953125 C -18.296875 -41.210938 -17.988281 -41.34375 -17.625 -41.34375 C -16.644531 -41.34375 -15.007812 -41.375 -12.71875 -41.4375 C -10.4375 -41.507812 -7.742188 -41.59375 -4.640625 -41.6875 C -2.421875 -41.726562 -0.273438 -41.769531 1.796875 -41.8125 C 3.878906 -41.863281 5.894531 -41.914062 7.84375 -41.96875 C 8.53125 -44.925781 9.207031 -47.707031 9.875 -50.3125 C 10.550781 -52.925781 11.191406 -55.320312 11.796875 -57.5 C 11.890625 -57.863281 12.097656 -58.140625 12.421875 -58.328125 C 12.742188 -58.515625 13.066406 -58.5625 13.390625 -58.46875 C 13.753906 -58.375 14.03125 -58.164062 14.21875 -57.84375 C 14.40625 -57.519531 14.453125 -57.175781 14.359375 -56.8125 C 13.242188 -52.6875 11.972656 -47.757812 10.546875 -42.03125 C 17.753906 -42.164062 23.925781 -42.269531 29.0625 -42.34375 C 34.195312 -42.414062 38.5 -42.453125 41.96875 -42.453125 C 45.4375 -42.453125 48.242188 -42.40625 50.390625 -42.3125 C 52.535156 -42.21875 54.160156 -42.113281 55.265625 -42 C 56.378906 -41.882812 57.164062 -41.734375 57.625 -41.546875 C 58.09375 -41.359375 58.398438 -41.148438 58.546875 -40.921875 Z M 58.546875 -40.921875 "/></g></g></g><g fill="#000000" fill-opacity="1"><g transform="translate(562.981366, 91.314185)"><g><path d="M 30.453125 -15.75 C 30.773438 -15.5625 31.003906 -15.289062 31.140625 -14.9375 C 31.273438 -14.59375 31.253906 -14.257812 31.078125 -13.9375 C 30.191406 -12.039062 29.113281 -9.910156 27.84375 -7.546875 C 26.570312 -5.191406 25.21875 -2.820312 23.78125 -0.4375 C 22.351562 1.9375 20.898438 4.101562 19.421875 6.0625 C 17.941406 8.03125 16.507812 9.625 15.125 10.84375 C 13.738281 12.070312 12.488281 12.6875 11.375 12.6875 C 11.050781 12.6875 10.75 12.617188 10.46875 12.484375 C 9.5 12.117188 8.863281 11.238281 8.5625 9.84375 C 8.257812 8.457031 8.296875 6.472656 8.671875 3.890625 C 9.316406 -0.785156 11.023438 -7.398438 13.796875 -15.953125 C 13.753906 -15.953125 13.71875 -15.941406 13.6875 -15.921875 C 13.664062 -15.898438 13.632812 -15.890625 13.59375 -15.890625 C 12.664062 -15.234375 11.554688 -14.554688 10.265625 -13.859375 C 8.972656 -13.171875 7.628906 -12.710938 6.234375 -12.484375 C 4.847656 -12.253906 3.53125 -12.554688 2.28125 -13.390625 C 0.53125 -14.640625 -0.363281 -16.375 -0.40625 -18.59375 C -0.457031 -20.8125 0.367188 -23.238281 2.078125 -25.875 C 2.628906 -26.707031 3.359375 -27.628906 4.265625 -28.640625 C 5.171875 -29.660156 6.117188 -30.445312 7.109375 -31 C 8.097656 -31.550781 8.988281 -31.578125 9.78125 -31.078125 C 10.195312 -30.835938 10.507812 -30.441406 10.71875 -29.890625 C 10.925781 -29.335938 10.910156 -28.484375 10.671875 -27.328125 C 10.441406 -26.171875 9.890625 -24.617188 9.015625 -22.671875 C 8.140625 -20.734375 6.820312 -18.21875 5.0625 -15.125 C 6.125 -14.976562 7.3125 -15.273438 8.625 -16.015625 C 9.945312 -16.753906 11.117188 -17.453125 12.140625 -18.109375 C 13.109375 -18.753906 13.914062 -19.222656 14.5625 -19.515625 C 15.207031 -19.816406 15.8125 -19.757812 16.375 -19.34375 C 16.875 -18.9375 17.078125 -18.429688 16.984375 -17.828125 C 16.898438 -17.222656 16.8125 -16.757812 16.71875 -16.4375 C 15.1875 -11.625 14.003906 -7.625 13.171875 -4.4375 C 12.347656 -1.25 11.785156 1.3125 11.484375 3.25 C 11.179688 5.195312 11.03125 6.65625 11.03125 7.625 C 11.03125 8.601562 11.097656 9.238281 11.234375 9.53125 C 11.367188 9.832031 11.4375 10.007812 11.4375 10.0625 C 12 10.15625 13.144531 9.265625 14.875 7.390625 C 16.613281 5.515625 18.679688 2.691406 21.078125 -1.078125 C 23.484375 -4.847656 26.003906 -9.503906 28.640625 -15.046875 C 28.828125 -15.421875 29.09375 -15.664062 29.4375 -15.78125 C 29.789062 -15.894531 30.128906 -15.882812 30.453125 -15.75 Z M 2.5 -20.46875 C 2.21875 -19.488281 2.132812 -18.6875 2.25 -18.0625 C 2.363281 -17.4375 2.539062 -16.941406 2.78125 -16.578125 C 4.257812 -19.171875 5.378906 -21.273438 6.140625 -22.890625 C 6.898438 -24.503906 7.414062 -25.75 7.6875 -26.625 C 7.96875 -27.507812 8.132812 -28.132812 8.1875 -28.5 C 7.675781 -28.226562 7.035156 -27.695312 6.265625 -26.90625 C 5.503906 -26.125 4.765625 -25.175781 4.046875 -24.0625 C 3.335938 -22.957031 2.820312 -21.757812 2.5 -20.46875 Z M 2.5 -20.46875 "/></g></g></g><g fill="#000000" fill-opacity="1"><g transform="translate(590.643397, 91.314185)"><g><path d="M 27.671875 -14.984375 C 27.953125 -14.796875 28.140625 -14.515625 28.234375 -14.140625 C 28.328125 -13.773438 28.28125 -13.453125 28.09375 -13.171875 C 27.71875 -12.578125 27.125 -11.65625 26.3125 -10.40625 C 25.507812 -9.15625 24.539062 -7.773438 23.40625 -6.265625 C 22.269531 -4.765625 21.066406 -3.3125 19.796875 -1.90625 C 18.523438 -0.5 17.265625 0.664062 16.015625 1.59375 C 14.773438 2.519531 13.617188 2.984375 12.546875 2.984375 C 12.179688 2.984375 11.859375 2.914062 11.578125 2.78125 C 10.421875 2.363281 9.691406 1.300781 9.390625 -0.40625 C 9.097656 -2.125 9.203125 -4.601562 9.703125 -7.84375 C 9.109375 -7.050781 8.460938 -6.238281 7.765625 -5.40625 C 7.078125 -4.570312 6.335938 -3.8125 5.546875 -3.125 C 4.347656 -2.101562 3.332031 -1.6875 2.5 -1.875 C 1.664062 -2.0625 1.109375 -2.289062 0.828125 -2.5625 C -0.00390625 -3.257812 -0.523438 -4.3125 -0.734375 -5.71875 C -0.941406 -7.132812 -0.867188 -8.707031 -0.515625 -10.4375 C -0.171875 -12.175781 0.460938 -13.851562 1.390625 -15.46875 C 1.578125 -15.789062 1.851562 -16 2.21875 -16.09375 C 2.59375 -16.1875 2.941406 -16.140625 3.265625 -15.953125 C 3.585938 -15.765625 3.789062 -15.5 3.875 -15.15625 C 3.96875 -14.8125 3.925781 -14.476562 3.75 -14.15625 C 2.914062 -12.757812 2.359375 -11.378906 2.078125 -10.015625 C 1.804688 -8.648438 1.726562 -7.484375 1.84375 -6.515625 C 1.957031 -5.546875 2.175781 -4.921875 2.5 -4.640625 C 2.6875 -4.503906 2.925781 -4.539062 3.21875 -4.75 C 3.519531 -4.957031 3.71875 -5.082031 3.8125 -5.125 C 4.6875 -5.914062 5.515625 -6.816406 6.296875 -7.828125 C 7.085938 -8.847656 7.765625 -9.773438 8.328125 -10.609375 C 9.066406 -11.628906 9.675781 -12.378906 10.15625 -12.859375 C 10.644531 -13.347656 11.210938 -13.453125 11.859375 -13.171875 C 12.503906 -12.941406 12.828125 -12.429688 12.828125 -11.640625 C 12.828125 -10.859375 12.710938 -9.800781 12.484375 -8.46875 C 12.023438 -5.78125 11.816406 -3.820312 11.859375 -2.59375 C 11.910156 -1.375 12.023438 -0.585938 12.203125 -0.234375 C 12.390625 0.109375 12.503906 0.28125 12.546875 0.28125 C 13.109375 0.507812 14.632812 -0.585938 17.125 -3.015625 C 19.625 -5.441406 22.515625 -9.289062 25.796875 -14.5625 C 25.984375 -14.882812 26.257812 -15.082031 26.625 -15.15625 C 27 -15.226562 27.347656 -15.171875 27.671875 -14.984375 Z M 27.671875 -14.984375 "/></g></g></g><g fill="#000000" fill-opacity="1"><g transform="translate(615.462967, 91.314185)"><g><path d="M 22.953125 -15.75 C 23.234375 -15.5625 23.421875 -15.28125 23.515625 -14.90625 C 23.609375 -14.539062 23.539062 -14.21875 23.3125 -13.9375 C 21.082031 -10.519531 18.878906 -7.351562 16.703125 -4.4375 C 14.535156 -1.519531 12.398438 0.835938 10.296875 2.640625 C 8.191406 4.441406 6.144531 5.34375 4.15625 5.34375 C 3.738281 5.34375 3.320312 5.296875 2.90625 5.203125 C 1.25 4.828125 -0.0195312 3.851562 -0.90625 2.28125 C -1.59375 1.039062 -1.992188 -0.398438 -2.109375 -2.046875 C -2.222656 -3.691406 -2.140625 -5.367188 -1.859375 -7.078125 C -1.585938 -8.785156 -1.175781 -10.378906 -0.625 -11.859375 C 0.300781 -14.398438 1.46875 -16.363281 2.875 -17.75 C 4.289062 -19.144531 5.617188 -19.632812 6.859375 -19.21875 C 7.097656 -19.164062 7.4375 -18.953125 7.875 -18.578125 C 8.3125 -18.210938 8.644531 -17.585938 8.875 -16.703125 C 9.101562 -15.828125 8.988281 -14.5625 8.53125 -12.90625 C 8.4375 -12.53125 8.238281 -12.25 7.9375 -12.0625 C 7.632812 -11.882812 7.300781 -11.84375 6.9375 -11.9375 C 6.5625 -12.019531 6.28125 -12.222656 6.09375 -12.546875 C 5.914062 -12.878906 5.875 -13.207031 5.96875 -13.53125 C 6.238281 -14.632812 6.335938 -15.425781 6.265625 -15.90625 C 6.203125 -16.394531 6.125 -16.664062 6.03125 -16.71875 C 5.84375 -16.71875 5.3125 -16.332031 4.4375 -15.5625 C 3.5625 -14.800781 2.707031 -13.242188 1.875 -10.890625 C 1.039062 -8.710938 0.585938 -6.503906 0.515625 -4.265625 C 0.453125 -2.023438 0.765625 -0.28125 1.453125 0.96875 C 1.921875 1.84375 2.59375 2.375 3.46875 2.5625 C 4.71875 2.84375 6.128906 2.414062 7.703125 1.28125 C 9.273438 0.144531 10.859375 -1.378906 12.453125 -3.296875 C 14.046875 -5.210938 15.59375 -7.253906 17.09375 -9.421875 C 18.59375 -11.597656 19.921875 -13.585938 21.078125 -15.390625 C 21.265625 -15.671875 21.539062 -15.859375 21.90625 -15.953125 C 22.28125 -16.046875 22.628906 -15.976562 22.953125 -15.75 Z M 22.953125 -15.75 "/></g></g></g><g fill="#000000" fill-opacity="1"><g transform="translate(635.984186, 91.314185)"><g><path d="M 32.875 -15.890625 C 33.15625 -15.703125 33.335938 -15.421875 33.421875 -15.046875 C 33.515625 -14.679688 33.472656 -14.335938 33.296875 -14.015625 C 31.078125 -10.453125 29.109375 -7.5625 27.390625 -5.34375 C 25.679688 -3.125 24.210938 -1.4375 22.984375 -0.28125 C 21.765625 0.875 20.738281 1.660156 19.90625 2.078125 C 19.070312 2.492188 18.398438 2.703125 17.890625 2.703125 C 17.378906 2.703125 16.988281 2.679688 16.71875 2.640625 C 15.65625 2.359375 14.867188 1.71875 14.359375 0.71875 C 13.847656 -0.269531 13.507812 -1.296875 13.34375 -2.359375 C 13.1875 -3.421875 13.085938 -4.226562 13.046875 -4.78125 C 12.953125 -6.40625 12.765625 -7.492188 12.484375 -8.046875 C 12.203125 -8.597656 11.992188 -8.875 11.859375 -8.875 C 11.816406 -8.875 11.796875 -8.875 11.796875 -8.875 C 11.191406 -8.875 10.195312 -8.03125 8.8125 -6.34375 C 7.425781 -4.65625 5.796875 -2.007812 3.921875 1.59375 C 2.046875 5.195312 0.09375 9.890625 -1.9375 15.671875 C -2.125 16.273438 -2.539062 16.578125 -3.1875 16.578125 C -3.28125 16.578125 -3.375 16.578125 -3.46875 16.578125 C -4.207031 16.390625 -4.554688 15.925781 -4.515625 15.1875 C -4.460938 14.40625 -4.25 12.992188 -3.875 10.953125 C -3.507812 8.921875 -3.015625 6.484375 -2.390625 3.640625 C -1.765625 0.796875 -1.070312 -2.285156 -0.3125 -5.609375 C 0.445312 -8.941406 1.234375 -12.316406 2.046875 -15.734375 C 2.859375 -19.160156 3.632812 -22.429688 4.375 -25.546875 C 5.113281 -28.671875 5.78125 -31.484375 6.375 -33.984375 C 6.976562 -36.484375 7.460938 -38.484375 7.828125 -39.984375 C 8.203125 -41.484375 8.390625 -42.257812 8.390625 -42.3125 C 9.453125 -46.5625 10.628906 -50.429688 11.921875 -53.921875 C 13.222656 -57.410156 14.507812 -60.21875 15.78125 -62.34375 C 17.050781 -64.476562 18.171875 -65.640625 19.140625 -65.828125 C 19.929688 -65.960938 20.535156 -65.726562 20.953125 -65.125 C 21.597656 -64.195312 21.535156 -62.265625 20.765625 -59.328125 C 20.003906 -56.398438 18.617188 -52.691406 16.609375 -48.203125 C 14.597656 -43.722656 12.046875 -38.707031 8.953125 -33.15625 C 8.117188 -29.6875 7.203125 -25.894531 6.203125 -21.78125 C 5.210938 -17.664062 4.242188 -13.523438 3.296875 -9.359375 C 2.347656 -5.203125 1.476562 -1.363281 0.6875 2.15625 C 1.9375 -0.476562 3.21875 -2.859375 4.53125 -4.984375 C 5.851562 -7.117188 7.171875 -8.773438 8.484375 -9.953125 C 9.804688 -11.128906 11.046875 -11.648438 12.203125 -11.515625 C 13.222656 -11.378906 13.972656 -10.867188 14.453125 -9.984375 C 14.941406 -9.109375 15.265625 -8.171875 15.421875 -7.171875 C 15.585938 -6.179688 15.671875 -5.457031 15.671875 -5 C 15.816406 -3.28125 16.050781 -2.023438 16.375 -1.234375 C 16.695312 -0.453125 17.019531 -0.0390625 17.34375 0 C 17.4375 0.0390625 17.75 -0.015625 18.28125 -0.171875 C 18.8125 -0.335938 19.59375 -0.859375 20.625 -1.734375 C 21.664062 -2.609375 23.039062 -4.117188 24.75 -6.265625 C 26.46875 -8.421875 28.550781 -11.488281 31 -15.46875 C 31.1875 -15.75 31.460938 -15.929688 31.828125 -16.015625 C 32.203125 -16.109375 32.550781 -16.066406 32.875 -15.890625 Z M 18.65625 -61.9375 C 17.875 -60.78125 16.820312 -58.734375 15.5 -55.796875 C 14.1875 -52.859375 12.859375 -48.867188 11.515625 -43.828125 C 13.867188 -48.503906 15.585938 -52.34375 16.671875 -55.34375 C 17.765625 -58.351562 18.425781 -60.550781 18.65625 -61.9375 Z M 18.65625 -61.9375 "/></g></g></g><g fill="#000000" fill-opacity="1"><g transform="translate(665.864727, 91.314185)"><g><path d="M 33.921875 -15.265625 C 34.148438 -14.984375 34.21875 -14.65625 34.125 -14.28125 C 34.03125 -13.914062 33.84375 -13.640625 33.5625 -13.453125 C 30.1875 -11.234375 26.800781 -8.835938 23.40625 -6.265625 C 20.007812 -3.703125 16.691406 -0.804688 13.453125 2.421875 C 10.722656 18.742188 7.742188 31.992188 4.515625 42.171875 C 3.816406 44.253906 3.0625 46.367188 2.25 48.515625 C 1.445312 50.660156 0.570312 52.671875 -0.375 54.546875 C -1.320312 56.421875 -2.328125 57.992188 -3.390625 59.265625 C -4.460938 60.535156 -5.550781 61.332031 -6.65625 61.65625 C -6.976562 61.75 -7.328125 61.796875 -7.703125 61.796875 C -8.765625 61.796875 -9.6875 61.332031 -10.46875 60.40625 C -11.445312 59.164062 -12.082031 57.269531 -12.375 54.71875 C -12.675781 52.175781 -12.617188 49.191406 -12.203125 45.765625 C -11.785156 42.347656 -10.988281 38.71875 -9.8125 34.875 C -8.632812 31.039062 -7.050781 27.226562 -5.0625 23.4375 C -2.65625 18.863281 -0.101562 14.75 2.59375 11.09375 C 5.300781 7.445312 8.113281 4.117188 11.03125 1.109375 C 11.71875 -3.234375 12.410156 -7.785156 13.109375 -12.546875 C 12.503906 -11.628906 11.851562 -10.695312 11.15625 -9.75 C 10.46875 -8.800781 9.78125 -7.910156 9.09375 -7.078125 C 8.164062 -5.960938 7.304688 -5.242188 6.515625 -4.921875 C 5.734375 -4.597656 5.0625 -4.484375 4.5 -4.578125 C 3.945312 -4.671875 3.535156 -4.8125 3.265625 -5 C 2.242188 -5.59375 1.546875 -6.664062 1.171875 -8.21875 C 0.804688 -9.769531 0.757812 -11.609375 1.03125 -13.734375 C 1.3125 -15.859375 1.914062 -18.078125 2.84375 -20.390625 C 2.976562 -20.710938 3.21875 -20.941406 3.5625 -21.078125 C 3.914062 -21.222656 4.253906 -21.222656 4.578125 -21.078125 C 4.898438 -20.941406 5.140625 -20.710938 5.296875 -20.390625 C 5.460938 -20.066406 5.476562 -19.71875 5.34375 -19.34375 C 4.414062 -17.175781 3.847656 -15.222656 3.640625 -13.484375 C 3.429688 -11.753906 3.441406 -10.34375 3.671875 -9.25 C 3.898438 -8.164062 4.222656 -7.507812 4.640625 -7.28125 C 5.148438 -6.957031 5.9375 -7.441406 7 -8.734375 C 7.925781 -9.847656 8.851562 -11.070312 9.78125 -12.40625 C 10.707031 -13.75 11.550781 -15.035156 12.3125 -16.265625 C 13.070312 -17.492188 13.6875 -18.5 14.15625 -19.28125 C 14.519531 -19.925781 15.050781 -20.132812 15.75 -19.90625 C 16.4375 -19.625 16.734375 -19.140625 16.640625 -18.453125 C 15.859375 -12.671875 15.050781 -7.191406 14.21875 -2.015625 C 17.132812 -4.742188 20.09375 -7.21875 23.09375 -9.4375 C 26.101562 -11.65625 29.109375 -13.734375 32.109375 -15.671875 C 32.390625 -15.859375 32.710938 -15.914062 33.078125 -15.84375 C 33.453125 -15.78125 33.734375 -15.585938 33.921875 -15.265625 Z M 1.9375 41.40625 C 4.894531 32.15625 7.648438 20.34375 10.203125 5.96875 C 7.890625 8.550781 5.644531 11.378906 3.46875 14.453125 C 1.289062 17.535156 -0.765625 20.945312 -2.703125 24.6875 C -4.785156 28.707031 -6.378906 32.59375 -7.484375 36.34375 C -8.597656 40.09375 -9.304688 43.515625 -9.609375 46.609375 C -9.910156 49.703125 -9.929688 52.300781 -9.671875 54.40625 C -9.421875 56.507812 -8.992188 57.929688 -8.390625 58.671875 C -8.160156 58.953125 -7.960938 59.101562 -7.796875 59.125 C -7.640625 59.144531 -7.515625 59.132812 -7.421875 59.09375 C -7.234375 59.050781 -6.882812 58.832031 -6.375 58.4375 C -5.875 58.039062 -5.207031 57.253906 -4.375 56.078125 C -3.539062 54.898438 -2.59375 53.140625 -1.53125 50.796875 C -0.46875 48.460938 0.6875 45.332031 1.9375 41.40625 Z M 1.9375 41.40625 "/></g></g></g><g fill="#000000" fill-opacity="1"><g transform="translate(696.577205, 91.314185)"><g><path d="M 29.890625 -15.609375 C 30.171875 -15.421875 30.359375 -15.140625 30.453125 -14.765625 C 30.546875 -14.398438 30.5 -14.078125 30.3125 -13.796875 C 29.15625 -11.898438 27.660156 -9.910156 25.828125 -7.828125 C 24.003906 -5.753906 22.050781 -3.800781 19.96875 -1.96875 C 17.894531 -0.144531 15.816406 1.34375 13.734375 2.5 C 11.648438 3.65625 9.773438 4.234375 8.109375 4.234375 C 7.742188 4.234375 7.398438 4.207031 7.078125 4.15625 C 6.335938 4.019531 5.550781 3.613281 4.71875 2.9375 C 3.882812 2.269531 3.304688 1.082031 2.984375 -0.625 C 2.890625 -1.082031 3.003906 -1.492188 3.328125 -1.859375 C 3.648438 -2.234375 4.160156 -2.722656 4.859375 -3.328125 C 5.410156 -3.785156 6.019531 -4.335938 6.6875 -4.984375 C 7.363281 -5.640625 8 -6.335938 8.59375 -7.078125 C 9.519531 -8.328125 10.117188 -9.46875 10.390625 -10.5 C 10.671875 -11.539062 10.769531 -12.269531 10.6875 -12.6875 C 10.445312 -12.59375 9.976562 -12.242188 9.28125 -11.640625 C 8.59375 -11.046875 7.671875 -9.847656 6.515625 -8.046875 C 5.128906 -5.960938 3.890625 -3.632812 2.796875 -1.0625 C 1.710938 1.5 0.710938 4.117188 -0.203125 6.796875 C -1.128906 9.472656 -1.960938 12.039062 -2.703125 14.5 L -3.046875 15.46875 C -3.234375 16.070312 -3.648438 16.375 -4.296875 16.375 C -4.390625 16.375 -4.460938 16.375 -4.515625 16.375 C -5.296875 16.226562 -5.664062 15.765625 -5.625 14.984375 C -5.625 14.609375 -5.445312 13.550781 -5.09375 11.8125 C -4.75 10.082031 -4.285156 7.863281 -3.703125 5.15625 C -3.128906 2.457031 -2.484375 -0.539062 -1.765625 -3.84375 C -1.046875 -7.15625 -0.285156 -10.554688 0.515625 -14.046875 C 1.328125 -17.535156 2.113281 -20.957031 2.875 -24.3125 C 3.632812 -27.664062 4.34375 -30.75 5 -33.5625 C 5.039062 -33.65625 5.0625 -33.773438 5.0625 -33.921875 C 5.894531 -37.390625 6.539062 -40.09375 7 -42.03125 C 8.0625 -46.28125 9.238281 -50.148438 10.53125 -53.640625 C 11.832031 -57.140625 13.117188 -59.941406 14.390625 -62.046875 C 15.660156 -64.148438 16.804688 -65.316406 17.828125 -65.546875 C 18.566406 -65.679688 19.164062 -65.425781 19.625 -64.78125 C 20.269531 -63.90625 20.210938 -62.007812 19.453125 -59.09375 C 18.691406 -56.175781 17.289062 -52.472656 15.25 -47.984375 C 13.21875 -43.503906 10.675781 -38.492188 7.625 -32.953125 C 6.9375 -30.078125 6.195312 -26.941406 5.40625 -23.546875 C 4.625 -20.148438 3.835938 -16.691406 3.046875 -13.171875 C 2.265625 -9.660156 1.523438 -6.3125 0.828125 -3.125 C 1.335938 -4.226562 1.878906 -5.320312 2.453125 -6.40625 C 3.035156 -7.5 3.628906 -8.53125 4.234375 -9.5 C 6.867188 -13.570312 9.132812 -15.535156 11.03125 -15.390625 C 12 -15.304688 12.671875 -14.800781 13.046875 -13.875 C 13.503906 -12.90625 13.5 -11.617188 13.03125 -10.015625 C 12.570312 -8.421875 11.789062 -6.882812 10.6875 -5.40625 C 10.03125 -4.570312 9.332031 -3.804688 8.59375 -3.109375 C 7.851562 -2.421875 7.1875 -1.820312 6.59375 -1.3125 C 6.445312 -1.175781 6.289062 -1.035156 6.125 -0.890625 C 5.96875 -0.753906 5.84375 -0.644531 5.75 -0.5625 C 5.9375 0.226562 6.210938 0.757812 6.578125 1.03125 C 6.953125 1.3125 7.28125 1.476562 7.5625 1.53125 C 8.582031 1.707031 9.9375 1.390625 11.625 0.578125 C 13.3125 -0.222656 15.132812 -1.410156 17.09375 -2.984375 C 19.0625 -4.554688 21.015625 -6.394531 22.953125 -8.5 C 24.898438 -10.601562 26.585938 -12.832031 28.015625 -15.1875 C 28.203125 -15.507812 28.476562 -15.707031 28.84375 -15.78125 C 29.21875 -15.851562 29.566406 -15.796875 29.890625 -15.609375 Z M 17.265625 -61.65625 C 16.484375 -60.5 15.429688 -58.453125 14.109375 -55.515625 C 12.796875 -52.585938 11.492188 -48.601562 10.203125 -43.5625 C 12.503906 -48.226562 14.195312 -52.0625 15.28125 -55.0625 C 16.375 -58.070312 17.035156 -60.269531 17.265625 -61.65625 Z M 17.265625 -61.65625 "/></g></g></g><g fill="#000000" fill-opacity="1"><g transform="translate(394.768039, 174.816653)"><g><path d="M 3.34375 -7.75 L 6.96875 -7.75 C 7.875 -7.75 8.617188 -8.054688 9.203125 -8.671875 C 9.804688 -9.285156 10.109375 -10.054688 10.109375 -10.984375 C 10.109375 -11.898438 9.820312 -12.648438 9.25 -13.234375 C 8.6875 -13.816406 7.925781 -14.109375 6.96875 -14.109375 L 3.34375 -14.109375 Z M 11.71875 -10.9375 C 11.71875 -9.570312 11.234375 -8.4375 10.265625 -7.53125 C 9.316406 -6.632812 8.144531 -6.1875 6.75 -6.1875 L 3.34375 -6.1875 L 3.34375 0 L 1.71875 0 L 1.71875 -15.65625 L 6.75 -15.65625 C 8.125 -15.65625 9.296875 -15.21875 10.265625 -14.34375 C 11.234375 -13.445312 11.71875 -12.3125 11.71875 -10.9375 Z M 11.71875 -10.9375 "/></g></g></g><g fill="#000000" fill-opacity="1"><g transform="translate(414.05892, 174.816653)"><g><path d="M 3.34375 0 L 1.71875 0 L 1.71875 -15.65625 L 3.34375 -15.65625 L 3.34375 -8.609375 L 10.453125 -8.609375 L 10.453125 -15.65625 L 12.0625 -15.65625 L 12.0625 0 L 10.453125 0 L 10.453125 -7 L 3.34375 -7 Z M 3.34375 0 "/></g></g></g><g fill="#000000" fill-opacity="1"><g transform="translate(434.961226, 174.816653)"><g><path d="M 15.515625 -7.875 C 15.515625 -9.632812 14.882812 -11.144531 13.625 -12.40625 C 12.363281 -13.664062 10.84375 -14.296875 9.0625 -14.296875 C 7.300781 -14.296875 5.789062 -13.664062 4.53125 -12.40625 C 3.269531 -11.144531 2.640625 -9.632812 2.640625 -7.875 C 2.640625 -6.09375 3.269531 -4.570312 4.53125 -3.3125 C 5.789062 -2.050781 7.300781 -1.421875 9.0625 -1.421875 C 10.84375 -1.421875 12.363281 -2.050781 13.625 -3.3125 C 14.882812 -4.570312 15.515625 -6.09375 15.515625 -7.875 Z M 17.125 -7.875 C 17.125 -6.769531 16.914062 -5.722656 16.5 -4.734375 C 16.070312 -3.753906 15.5 -2.90625 14.78125 -2.1875 C 14.039062 -1.445312 13.179688 -0.867188 12.203125 -0.453125 C 11.210938 -0.0234375 10.164062 0.1875 9.0625 0.1875 C 7.957031 0.1875 6.925781 -0.0234375 5.96875 -0.453125 C 4.976562 -0.867188 4.125 -1.445312 3.40625 -2.1875 C 2.664062 -2.90625 2.09375 -3.753906 1.6875 -4.734375 C 1.25 -5.722656 1.03125 -6.769531 1.03125 -7.875 C 1.03125 -8.976562 1.25 -10.019531 1.6875 -11 C 2.09375 -11.976562 2.664062 -12.832031 3.40625 -13.5625 C 4.125 -14.28125 4.976562 -14.851562 5.96875 -15.28125 C 6.925781 -15.695312 7.957031 -15.90625 9.0625 -15.90625 C 10.164062 -15.90625 11.210938 -15.695312 12.203125 -15.28125 C 13.179688 -14.851562 14.039062 -14.28125 14.78125 -13.5625 C 15.5 -12.832031 16.070312 -11.976562 16.5 -11 C 16.914062 -10.019531 17.125 -8.976562 17.125 -7.875 Z M 17.125 -7.875 "/></g></g></g><g fill="#000000" fill-opacity="1"><g transform="translate(460.237371, 174.816653)"><g><path d="M 0.453125 -14.203125 L 0.453125 -15.703125 L 9.671875 -15.703125 L 9.671875 -14.203125 L 5.875 -14.203125 L 5.875 -0.046875 L 4.265625 -0.046875 L 4.265625 -14.203125 Z M 0.453125 -14.203125 "/></g></g></g><g fill="#000000" fill-opacity="1"><g transform="translate(477.47948, 174.816653)"><g><path d="M 15.515625 -7.875 C 15.515625 -9.632812 14.882812 -11.144531 13.625 -12.40625 C 12.363281 -13.664062 10.84375 -14.296875 9.0625 -14.296875 C 7.300781 -14.296875 5.789062 -13.664062 4.53125 -12.40625 C 3.269531 -11.144531 2.640625 -9.632812 2.640625 -7.875 C 2.640625 -6.09375 3.269531 -4.570312 4.53125 -3.3125 C 5.789062 -2.050781 7.300781 -1.421875 9.0625 -1.421875 C 10.84375 -1.421875 12.363281 -2.050781 13.625 -3.3125 C 14.882812 -4.570312 15.515625 -6.09375 15.515625 -7.875 Z M 17.125 -7.875 C 17.125 -6.769531 16.914062 -5.722656 16.5 -4.734375 C 16.070312 -3.753906 15.5 -2.90625 14.78125 -2.1875 C 14.039062 -1.445312 13.179688 -0.867188 12.203125 -0.453125 C 11.210938 -0.0234375 10.164062 0.1875 9.0625 0.1875 C 7.957031 0.1875 6.925781 -0.0234375 5.96875 -0.453125 C 4.976562 -0.867188 4.125 -1.445312 3.40625 -2.1875 C 2.664062 -2.90625 2.09375 -3.753906 1.6875 -4.734375 C 1.25 -5.722656 1.03125 -6.769531 1.03125 -7.875 C 1.03125 -8.976562 1.25 -10.019531 1.6875 -11 C 2.09375 -11.976562 2.664062 -12.832031 3.40625 -13.5625 C 4.125 -14.28125 4.976562 -14.851562 5.96875 -15.28125 C 6.925781 -15.695312 7.957031 -15.90625 9.0625 -15.90625 C 10.164062 -15.90625 11.210938 -15.695312 12.203125 -15.28125 C 13.179688 -14.851562 14.039062 -14.28125 14.78125 -13.5625 C 15.5 -12.832031 16.070312 -11.976562 16.5 -11 C 16.914062 -10.019531 17.125 -8.976562 17.125 -7.875 Z M 17.125 -7.875 "/></g></g></g><g fill="#000000" fill-opacity="1"><g transform="translate(502.755624, 174.816653)"><g><path d="M 17.171875 -7.3125 L 17.015625 -6.359375 C 16.671875 -4.453125 15.738281 -2.882812 14.21875 -1.65625 C 12.695312 -0.425781 10.988281 0.1875 9.09375 0.1875 C 7.988281 0.1875 6.945312 -0.0234375 5.96875 -0.453125 C 4.976562 -0.867188 4.125 -1.445312 3.40625 -2.1875 C 2.664062 -2.90625 2.09375 -3.753906 1.6875 -4.734375 C 1.25 -5.722656 1.03125 -6.773438 1.03125 -7.890625 C 1.03125 -8.992188 1.25 -10.039062 1.6875 -11.03125 C 2.09375 -12.007812 2.664062 -12.867188 3.40625 -13.609375 C 4.125 -14.328125 4.976562 -14.898438 5.96875 -15.328125 C 6.945312 -15.742188 7.9375 -15.953125 8.9375 -15.953125 C 10.800781 -15.953125 12.445312 -15.421875 13.875 -14.359375 C 15.320312 -13.304688 16.304688 -11.910156 16.828125 -10.171875 L 15.125 -10.171875 C 14.632812 -11.441406 13.84375 -12.457031 12.75 -13.21875 C 11.644531 -13.96875 10.425781 -14.34375 9.09375 -14.34375 C 7.3125 -14.34375 5.789062 -13.710938 4.53125 -12.453125 C 3.269531 -11.191406 2.640625 -9.671875 2.640625 -7.890625 C 2.640625 -6.128906 3.269531 -4.613281 4.53125 -3.34375 C 5.769531 -2.0625 7.289062 -1.421875 9.09375 -1.421875 C 10.5 -1.421875 11.785156 -1.828125 12.953125 -2.640625 C 14.109375 -3.472656 14.914062 -4.566406 15.375 -5.921875 L 9.015625 -5.921875 L 9.015625 -7.3125 Z M 17.171875 -7.3125 "/></g></g></g><g fill="#000000" fill-opacity="1"><g transform="translate(528.077813, 174.816653)"><g><path d="M 3.34375 -7.734375 L 6.96875 -7.734375 C 7.875 -7.734375 8.617188 -8.039062 9.203125 -8.65625 C 9.804688 -9.28125 10.109375 -10.054688 10.109375 -10.984375 C 10.109375 -11.890625 9.820312 -12.640625 9.25 -13.234375 C 8.6875 -13.816406 7.925781 -14.109375 6.96875 -14.109375 L 3.34375 -14.109375 Z M 11.71875 -10.9375 C 11.71875 -9.570312 11.234375 -8.4375 10.265625 -7.53125 C 9.398438 -6.726562 8.363281 -6.289062 7.15625 -6.21875 L 11.96875 0 L 9.8125 0 L 5.21875 -6.1875 L 3.34375 -6.1875 L 3.34375 0 L 1.71875 0 L 1.71875 -15.65625 L 6.75 -15.65625 C 8.144531 -15.65625 9.316406 -15.21875 10.265625 -14.34375 C 11.234375 -13.414062 11.71875 -12.28125 11.71875 -10.9375 Z M 11.71875 -10.9375 "/></g></g></g><g fill="#000000" fill-opacity="1"><g transform="translate(547.714009, 174.816653)"><g><path d="M 4.265625 -5.75 L 9.9375 -5.75 L 7.109375 -12.953125 Z M 13.96875 0 L 12.21875 0 L 10.546875 -4.265625 L 3.65625 -4.265625 L 1.984375 0 L 0.234375 0 L 7.109375 -16.734375 Z M 13.96875 0 "/></g></g></g><g fill="#000000" fill-opacity="1"><g transform="translate(569.030684, 174.816653)"><g><path d="M 3.34375 -7.75 L 6.96875 -7.75 C 7.875 -7.75 8.617188 -8.054688 9.203125 -8.671875 C 9.804688 -9.285156 10.109375 -10.054688 10.109375 -10.984375 C 10.109375 -11.898438 9.820312 -12.648438 9.25 -13.234375 C 8.6875 -13.816406 7.925781 -14.109375 6.96875 -14.109375 L 3.34375 -14.109375 Z M 11.71875 -10.9375 C 11.71875 -9.570312 11.234375 -8.4375 10.265625 -7.53125 C 9.316406 -6.632812 8.144531 -6.1875 6.75 -6.1875 L 3.34375 -6.1875 L 3.34375 0 L 1.71875 0 L 1.71875 -15.65625 L 6.75 -15.65625 C 8.125 -15.65625 9.296875 -15.21875 10.265625 -14.34375 C 11.234375 -13.445312 11.71875 -12.3125 11.71875 -10.9375 Z M 11.71875 -10.9375 "/></g></g></g><g fill="#000000" fill-opacity="1"><g transform="translate(588.321564, 174.816653)"><g><path d="M 3.34375 0 L 1.71875 0 L 1.71875 -15.65625 L 3.34375 -15.65625 L 3.34375 -8.609375 L 10.453125 -8.609375 L 10.453125 -15.65625 L 12.0625 -15.65625 L 12.0625 0 L 10.453125 0 L 10.453125 -7 L 3.34375 -7 Z M 3.34375 0 "/></g></g></g><g fill="#000000" fill-opacity="1"><g transform="translate(609.223871, 174.816653)"><g><path d="M 7.78125 -7.359375 L 7.78125 0 L 6.171875 0 L 6.171875 -7.359375 L 0.234375 -15.65625 L 2.296875 -15.65625 L 6.96875 -8.953125 L 11.640625 -15.65625 L 13.6875 -15.65625 Z M 7.78125 -7.359375 "/></g></g></g></svg>